<?xml version="1.0" standalone="no"?>
<!DOCTYPE svg PUBLIC "-//W3C//DTD SVG 20010904//EN"
 "http://www.w3.org/TR/2001/REC-SVG-20010904/DTD/svg10.dtd">
<svg version="1.0" xmlns="http://www.w3.org/2000/svg"
 width="1024.000000pt" height="1024.000000pt" viewBox="0 0 1024.000000 1024.000000"
 preserveAspectRatio="xMidYMid meet">
<metadata>
Created by potrace 1.14, written by Peter Selinger 2001-2017
</metadata>
<g transform="translate(0.000000,1024.000000) scale(0.100000,-0.100000)"
fill="#000000" stroke="none">
<path d="M0 5120 l0 -5120 5120 0 5120 0 0 5120 0 5120 -5120 0 -5120 0 0
-5120z m3982 1528 c91 -148 74 -146 152 -19 l69 111 108 0 109 0 0 -70 0 -70
-32 -2 c-18 0 -39 -1 -47 -1 -9 1 -10 -2 -2 -10 23 -23 10 -29 -14 -7 -14 13
-25 19 -25 13 0 -5 11 -20 24 -32 13 -12 24 -33 24 -47 0 -25 -1 -25 -37 10
-55 53 -63 44 -10 -11 27 -28 46 -58 47 -72 1 -22 -4 -19 -51 27 -41 40 -54
48 -64 38 -9 -11 2 -26 50 -72 l62 -59 -53 55 c-68 73 -67 90 2 21 36 -36 54
-61 54 -78 0 -23 -7 -19 -67 41 l-67 66 -64 -100 c-36 -56 -70 -108 -76 -117
-9 -13 -23 3 -78 91 -63 97 -94 137 -81 104 3 -7 -26 -44 -64 -82 l-70 -70 1
137 c0 76 -2 141 -6 144 -3 4 4 18 16 32 l23 26 -26 -22 c-14 -13 -38 -23 -54
-23 l-29 0 39 42 c37 39 37 40 5 10 -43 -38 -46 -39 -45 -8 0 14 14 40 30 58
23 25 24 28 4 10 -32 -28 -34 -27 -35 2 -2 24 -1 24 110 25 l111 1 57 -92z
m691 18 l-68 -71 75 72 c58 55 82 71 103 71 28 0 27 -3 -40 -72 l-68 -71 75
73 75 72 83 0 83 0 -3 -107 -3 -108 -64 -3 c-35 -2 -68 1 -72 5 -4 4 -9 27
-10 50 -2 31 -6 40 -14 33 -7 -6 -31 -9 -54 -8 l-42 1 58 61 58 61 -71 -65
-72 -65 -1 -65 c-1 -65 10 -93 33 -84 6 2 36 -20 66 -51 69 -70 54 -72 -20 -3
-47 45 -45 43 10 -15 35 -37 60 -67 54 -67 -5 0 -41 32 -79 70 -38 39 -74 70
-79 70 -6 0 21 -31 59 -70 59 -60 65 -69 44 -68 -15 1 -50 26 -96 72 -40 38
-75 68 -78 65 -3 -3 24 -34 60 -69 36 -34 64 -65 61 -67 -3 -3 -17 8 -31 25
-14 17 -49 50 -78 73 l-52 43 64 -67 64 -66 -2 -74 c-2 -56 1 -77 13 -86 9 -8
16 -9 16 -4 0 11 40 11 58 0 7 -5 12 -4 12 2 0 6 7 8 15 5 8 -4 15 -10 15 -15
0 -4 -7 -6 -15 -3 -22 9 -18 1 11 -27 26 -24 26 -24 15 -1 -7 13 -8 22 -2 22
6 0 8 6 5 13 -8 21 63 81 97 83 l31 2 -34 -37 -33 -36 41 38 41 38 -1 -111 0
-110 -75 0 -76 0 -80 78 -80 77 68 -70 c94 -99 84 -106 -13 -10 -44 44 -80 75
-80 69 0 -5 29 -38 65 -74 35 -35 62 -66 59 -69 -2 -3 -42 31 -87 75 -77 75
-78 75 -14 9 94 -99 84 -106 -13 -10 -44 44 -80 75 -80 69 0 -5 29 -38 65 -74
35 -35 62 -66 59 -69 -2 -3 -36 26 -74 64 l-70 69 0 83 c0 74 2 82 18 76 16
-6 16 -5 1 13 -8 10 -16 30 -17 43 -1 22 2 21 44 -19 24 -25 44 -40 44 -34 0
5 -20 30 -45 54 -25 24 -44 49 -44 55 1 5 1 45 0 88 -1 71 -3 79 -22 84 -18 5
-14 13 43 72 l63 66 -70 -67 c-39 -38 -73 -68 -77 -68 -4 0 -8 8 -11 18 -2 10
14 37 42 67 43 47 44 48 6 12 -23 -20 -43 -37 -46 -37 -8 0 -5 43 4 57 4 6 2
13 -5 15 -7 3 47 5 120 5 l133 0 -68 -71z m433 63 c3 -5 10 -9 15 -9 6 0 7 5
4 10 -5 8 24 10 87 9 l93 -2 43 -41 c48 -46 58 -38 11 10 l-31 32 63 -2 c35
-2 76 -8 90 -14 75 -31 139 -128 139 -212 0 -50 -35 -134 -68 -164 -12 -10
-19 -23 -16 -28 6 -9 -83 -108 -96 -108 -4 0 -14 16 -23 35 l-17 36 -68 -3
c-51 -2 -66 -6 -64 -17 2 -8 -14 -33 -35 -55 l-38 -41 37 34 37 34 -1 -32 c-1
-24 8 -42 37 -72 44 -44 37 -53 -9 -12 -21 19 -19 15 7 -12 47 -51 49 -70 2
-25 -46 45 -45 26 2 -22 34 -35 35 -37 12 -36 -13 1 -30 6 -36 11 -9 6 -13 6
-13 -2 0 -7 -26 -11 -73 -11 -72 0 -73 1 -112 40 -44 45 -37 54 9 13 21 -19
19 -15 -6 12 -48 51 -50 70 -3 25 46 -45 45 -26 -2 22 -34 35 -35 37 -12 36
13 -1 30 -6 37 -11 8 -7 12 -4 12 9 0 10 21 41 48 69 38 40 39 43 7 12 -23
-20 -43 -37 -47 -37 -3 0 -5 57 -6 128 l0 127 66 70 67 70 -66 -64 -67 -63 3
55 c2 53 0 58 -35 92 -24 23 -37 46 -37 62 l0 25 31 -31 c49 -48 56 -36 7 13
-42 43 -42 44 -17 44 15 0 29 -4 32 -9z m996 -199 c71 -113 133 -212 138 -220
7 -12 23 -1 79 55 69 68 71 69 71 40 0 -22 -14 -44 -57 -90 l-58 -60 56 53 56
53 2 -112 c1 -77 -3 -116 -11 -127 -10 -12 -10 -14 0 -8 9 5 12 -6 12 -44 l0
-51 -71 3 -72 3 -140 223 -140 223 -68 -67 c-38 -38 -71 -65 -75 -61 -4 3 24
39 62 79 66 71 66 71 8 16 -83 -80 -93 -73 -14 9 55 58 57 60 10 15 -31 -28
-58 -52 -61 -52 -2 0 -4 11 -4 25 1 16 19 45 46 73 43 46 43 46 4 9 -23 -20
-43 -37 -46 -37 -16 0 1 54 26 82 23 25 24 28 4 10 -26 -22 -45 -30 -35 -13
13 21 -7 41 -40 41 l-34 0 0 70 0 71 111 -3 112 -3 129 -205z m148 155 c0 5
-10 19 -22 32 -22 24 -13 33 11 11 10 -10 12 -10 7 -1 -5 9 13 12 73 11 79 -1
80 -1 117 -39 46 -47 34 -52 -16 -7 -23 22 -20 16 10 -15 24 -26 40 -47 34
-47 -6 0 -23 13 -39 30 -16 16 -31 28 -34 25 -2 -3 13 -23 34 -45 36 -37 37
-39 14 -38 -13 1 -29 5 -35 10 -8 6 -12 -16 -13 -79 l-2 -88 -67 -68 c-77 -77
-99 -72 -26 6 l49 52 -46 -43 -47 -44 1 44 c0 23 5 49 11 57 8 11 8 13 -1 7
-10 -5 -13 10 -13 65 0 69 -2 74 -33 104 -28 27 -34 41 -34 74 l0 42 34 -32
c18 -18 33 -29 33 -24z m213 48 c-7 -2 -9 -11 -6 -19 7 -19 -1 -18 -21 5 -16
18 -16 18 11 18 15 0 23 -2 16 -4z m-1388 -112 c16 -19 16 -20 -2 -18 -11 0
-20 9 -20 19 -2 23 0 22 22 -1z m1130 0 c16 -19 16 -20 -2 -18 -11 0 -20 9
-20 19 -2 23 0 22 22 -1z m-1861 -300 c-6 -7 -133 120 -134 134 0 5 31 -22 70
-60 38 -38 67 -71 64 -74z m1622 -3 l0 -143 37 -3 37 -3 0 -75 0 -74 -145 0
-146 0 3 73 3 72 31 3 c23 2 48 21 100 75 67 70 68 71 7 13 -34 -33 -65 -57
-69 -53 -4 3 26 41 67 84 73 77 73 77 8 16 -35 -35 -67 -63 -69 -63 -3 0 -5
18 -4 41 1 36 8 48 70 110 37 38 69 69 70 69 0 0 1 -64 0 -142z m-1130 111
c21 -24 8 -25 -20 -2 -12 10 -8 3 8 -15 42 -46 27 -49 -18 -3 -37 38 -37 39
-12 39 14 0 33 -9 42 -19z m-918 -46 c-1 -45 -4 -52 -67 -118 l-66 -70 66 63
66 63 1 -42 c2 -36 -3 -48 -30 -76 l-32 -33 64 -63 65 -62 -60 63 -59 62 27
27 27 28 0 -26 c0 -16 12 -36 32 -55 18 -16 25 -20 15 -8 -23 28 -22 41 2 20
10 -9 19 -28 19 -42 0 -23 -2 -23 -44 16 -62 57 -67 49 -8 -12 30 -31 51 -63
52 -77 1 -20 -11 -12 -77 53 -43 42 -82 76 -87 76 -5 0 25 -34 66 -75 41 -41
70 -75 64 -75 -5 0 -43 34 -84 75 l-74 75 59 62 60 63 -65 -62 -65 -63 68 -68
c37 -37 67 -72 67 -77 0 -5 -33 23 -73 63 -94 93 -94 107 2 207 l66 70 -67
-65 c-67 -64 -68 -64 -68 -35 0 23 15 44 67 97 37 38 68 68 69 68 1 0 2 -21 2
-47z m430 -110 c0 -23 -7 -18 -68 42 -47 47 -67 74 -67 92 0 23 6 18 67 -42
47 -47 68 -74 68 -92z m0 -70 c0 -23 -7 -18 -68 42 -47 47 -67 74 -67 92 0 23
6 18 67 -42 47 -47 68 -74 68 -92z m1227 57 c18 -40 18 -40 -6 -68 l-24 -27
28 25 c24 21 30 22 37 10 5 -8 10 -18 10 -22 0 -5 16 -8 35 -8 l35 0 0 -75 0
-76 -142 3 -143 3 0 70 c0 67 1 70 25 74 15 2 45 27 75 60 l49 56 -52 -50
c-29 -27 -52 -45 -52 -40 0 10 91 105 101 105 3 0 14 -18 24 -40z m-1205 -93
l31 0 -28 -31 c-25 -27 -24 -27 10 3 l37 35 0 -29 c0 -20 -12 -42 -37 -70
l-38 -40 36 33 37 34 -1 -40 -1 -39 -138 -1 c-76 0 -138 3 -138 6 0 3 17 24
38 47 l37 40 -35 -33 c-43 -38 -46 -39 -45 -8 0 13 18 43 42 69 30 32 41 52
36 64 -4 13 2 10 24 -9 43 -41 53 -34 12 10 -20 20 -36 48 -37 61 -1 21 7 16
63 -39 51 -50 70 -63 95 -63z m530 69 c0 -1 -13 -15 -29 -30 l-30 -29 4 29 c2
16 4 30 4 30 1 2 51 2 51 0z m-1050 -210 c0 -6 -31 21 -70 59 -38 38 -70 74
-70 79 0 6 32 -21 70 -59 39 -38 70 -74 70 -79z m34 -5 c-6 -6 -144 130 -144
143 0 6 34 -23 75 -64 41 -41 72 -76 69 -79z m280 138 c4 6 12 11 18 11 7 0
-1 -13 -17 -30 -28 -30 -49 -34 -25 -5 9 11 9 15 1 15 -7 0 -9 5 -5 11 5 8 9
8 14 -1 5 -9 9 -9 14 -1z m470 -138 c-6 -6 -144 130 -144 143 0 6 34 -23 75
-64 41 -41 72 -76 69 -79z m-29 79 c38 -38 67 -72 64 -74 -3 -3 -38 28 -79 69
-41 41 -70 75 -64 75 5 0 41 -31 79 -70z m711 59 c5 -8 9 -8 14 1 5 7 8 2 8
-14 0 -14 -1 -26 -3 -26 -1 0 -12 11 -25 25 -13 14 -18 25 -12 25 6 0 14 -5
18 -11z m-1552 -78 c53 -54 56 -58 33 -58 -16 0 -39 14 -63 38 -49 50 -33 51
20 2 36 -34 35 -32 -7 14 -42 46 -53 63 -44 63 1 0 29 -26 61 -59z m786 4 c29
-30 52 -57 49 -59 -3 -3 -32 21 -64 54 -33 33 -55 60 -49 60 5 0 34 -25 64
-55z m-16 -24 c38 -38 38 -38 12 -38 -15 0 -29 4 -32 9 -4 6 -9 5 -14 -2 -5
-9 -9 -9 -14 -1 -4 6 -2 11 5 11 8 0 8 4 -1 15 -19 23 0 18 29 -7 24 -21 24
-21 -1 8 -25 26 -34 44 -25 44 2 0 20 -17 41 -39z m-799 -11 c27 -30 12 -34
-15 -5 -13 14 -19 25 -13 25 5 0 18 -9 28 -20z m1360 -28 c-7 -7 -45 29 -45
41 0 6 11 0 25 -13 14 -13 23 -26 20 -28z m-1700 -531 c-5 13 7 15 74 16 57 0
78 -3 74 -11 -4 -6 0 -5 9 2 14 11 25 10 67 -9 28 -12 51 -24 51 -27 0 -4 -21
-29 -47 -57 l-48 -50 52 49 c68 65 82 51 17 -17 l-49 -52 50 48 c71 66 81 59
15 -10 l-55 -58 50 48 c28 26 53 47 57 47 3 0 13 -18 22 -41 14 -34 14 -44 4
-57 -10 -12 -10 -14 0 -8 9 6 12 -28 12 -155 0 -142 -2 -160 -15 -149 -8 7
-15 8 -15 2 0 -5 7 -15 15 -22 9 -7 13 -15 10 -18 -3 -3 -20 8 -38 24 l-32 29
33 -35 c48 -54 39 -61 -13 -10 -25 24 -45 40 -45 34 0 -5 18 -27 40 -49 22
-21 37 -41 35 -44 -3 -3 -30 20 -60 49 l-55 54 0 154 c0 147 -1 154 -24 176
l-23 24 46 48 46 49 -53 -50 -53 -50 -79 -1 -79 -1 -56 57 c-47 48 -54 58 -39
64 12 5 28 -4 54 -29 50 -48 63 -44 15 5 -44 45 -37 54 9 13 29 -26 29 -26 8
-2 -28 32 -29 48 -2 24 16 -14 19 -15 15 -4z m468 -23 c-43 -44 -51 -47 -47
-15 1 12 3 29 3 37 1 11 12 16 41 16 l41 1 -38 -39z m107 38 c0 -1 -33 -34
-74 -75 -67 -66 -74 -71 -79 -51 -9 34 82 127 123 127 16 0 30 -1 30 -1z m130
-5 c0 -3 -28 -35 -62 -71 l-63 -65 63 60 c62 59 62 59 62 30 0 -17 -11 -41
-27 -59 -28 -30 -28 -31 -2 -8 l27 23 0 -26 c0 -15 -4 -22 -8 -16 -5 9 -10 8
-19 -3 -11 -13 1 -29 78 -103 50 -48 91 -92 91 -97 0 -6 -17 6 -37 25 l-37 34
33 -40 c18 -22 69 -86 113 -143 l81 -103 -69 -72 -69 -72 71 68 c45 43 81 69
97 71 15 2 27 1 27 -3 0 -3 -28 -35 -62 -71 l-63 -65 60 58 c33 31 63 57 66
57 16 0 -1 -54 -26 -82 -23 -25 -24 -28 -4 -10 32 28 34 28 35 -3 1 -14 -2
-25 -7 -25 -5 0 -9 5 -9 11 0 6 -5 7 -12 2 -7 -4 -55 -8 -106 -9 l-94 -1 69
71 68 71 -75 -72 c-42 -40 -82 -73 -90 -73 -8 0 17 33 55 73 l70 72 -78 -75
c-75 -73 -77 -74 -77 -45 0 21 12 43 43 75 l42 45 -41 -38 -41 -38 -1 36 c-1
25 3 35 13 35 8 0 15 4 15 9 0 13 -50 72 -112 130 -32 30 -58 59 -58 64 0 6
12 0 27 -14 14 -13 -22 37 -82 111 -59 74 -112 134 -116 133 -21 -6 -5 16 56
77 l65 66 60 0 c33 1 60 -2 60 -5z m120 5 c0 -2 -11 -13 -25 -26 l-25 -23 0
24 c0 19 6 24 25 25 14 1 25 1 25 0z m235 -34 c0 -22 -6 -46 -14 -56 -12 -14
-12 -16 3 -10 13 5 15 1 13 -17 -4 -21 -10 -24 -46 -24 -31 0 -40 -3 -36 -14
4 -10 -2 -9 -22 4 l-28 18 24 -27 c32 -34 15 -34 -21 1 -15 15 -28 21 -28 15
0 -10 -5 -10 -22 -1 -15 7 -9 -4 19 -32 31 -33 38 -47 30 -55 -9 -9 -26 2 -70
43 -35 34 -63 53 -72 49 -27 -10 -16 8 48 74 l62 65 -62 -60 c-63 -59 -63 -59
-63 -30 0 19 11 40 30 60 30 31 31 31 143 33 l113 2 -1 -38z m123 25 c8 -6 12
-6 12 2 0 7 26 11 73 11 l73 0 69 -70 c86 -87 74 -93 -15 -7 l-65 62 59 -62
c33 -34 58 -65 55 -68 -3 -2 -25 16 -49 40 -24 25 -49 45 -54 45 -6 0 10 -20
34 -45 51 -52 48 -59 -7 -13 -27 23 -31 25 -15 7 26 -30 30 -49 5 -26 -17 14
-18 14 -20 -10 -1 -17 -25 -50 -70 -97 l-68 -71 68 65 c66 64 67 64 67 35 0
-23 -15 -45 -67 -100 l-68 -70 68 65 c37 35 67 60 67 54 0 -5 -31 -40 -69 -78
l-68 -68 0 64 -1 63 67 70 66 70 -66 -63 c-65 -63 -67 -63 -67 -35 0 18 11 41
31 63 l32 35 -31 -28 -31 -28 0 26 c0 17 -14 40 -35 63 -19 20 -35 48 -36 61
-1 23 0 23 34 -9 18 -19 34 -29 34 -24 0 6 -5 15 -12 22 -9 9 -9 12 2 12 9 0
8 6 -5 20 -12 13 -21 17 -25 10 -5 -7 -11 -6 -19 4 -11 12 -9 15 11 14 13 -1
29 -6 36 -11z m265 -26 c42 -39 51 -32 11 10 l-25 27 96 1 96 2 -2 -108 -1
-108 -69 -1 c-38 0 -69 2 -69 5 0 3 12 19 28 35 l27 31 -27 -24 -28 -24 -1 24
c-1 13 -1 28 0 33 1 5 -26 38 -60 72 -55 55 -59 63 -38 62 13 -1 41 -17 62
-37z m446 27 c8 -7 11 -8 8 -2 -4 7 23 11 88 11 52 0 95 -3 95 -6 0 -2 -10
-16 -22 -30 -21 -24 -20 -23 8 2 27 25 34 26 60 17 58 -22 59 -29 9 -80 l-46
-47 -115 1 -114 2 -45 44 c-25 24 -45 49 -45 54 0 6 26 -14 57 -44 l58 -55
-48 50 c-65 70 -59 82 8 15 30 -30 55 -50 55 -44 0 5 -20 30 -45 54 -38 37
-42 46 -29 53 11 7 23 2 43 -17 38 -36 51 -33 16 4 -27 29 -24 44 4 18z m494
-7 c16 -13 17 -13 12 1 -5 13 5 15 69 14 l75 -1 53 -52 c30 -29 58 -53 63 -53
5 0 -15 25 -45 55 -64 65 -56 74 10 13 39 -38 41 -38 11 -6 -19 21 -32 40 -29
43 2 3 13 -4 23 -15 10 -11 23 -20 28 -20 6 0 2 9 -8 20 -18 20 -17 20 35 16
71 -6 136 -47 175 -110 26 -42 30 -59 30 -115 -1 -70 -23 -128 -63 -164 -17
-16 -19 -23 -10 -43 6 -13 15 -24 19 -24 4 0 12 -14 18 -32 10 -28 8 -35 -11
-57 l-23 -26 27 24 c30 26 30 27 47 -6 8 -16 21 -23 41 -23 l30 0 0 -70 0 -70
-145 0 -146 0 3 73 c3 66 5 72 23 69 14 -2 38 16 75 55 l55 58 -51 -48 c-68
-64 -78 -47 -12 22 l53 56 -52 -49 c-29 -28 -54 -48 -56 -45 -3 2 -12 19 -21
37 -16 31 -19 32 -79 32 l-63 0 -54 -57 -55 -58 53 50 c60 57 70 50 15 -10
-26 -27 -28 -31 -7 -12 37 33 42 34 42 1 0 -15 13 -40 34 -62 19 -20 35 -48
36 -61 1 -23 0 -23 -34 9 -46 45 -44 26 3 -22 34 -35 35 -37 12 -36 -13 1 -30
6 -36 11 -9 6 -13 5 -13 -2 0 -8 -28 -11 -95 -10 -102 2 -120 10 -123 58 -1
23 0 23 34 -9 18 -19 34 -29 34 -24 0 6 -15 25 -34 43 -19 19 -34 42 -33 52 2
25 9 24 37 -6 28 -30 41 -24 14 7 -17 19 -17 21 -1 15 12 -4 17 -1 17 10 0 10
21 40 48 68 38 40 39 43 7 12 -23 -20 -44 -37 -47 -37 -10 0 -6 43 5 58 6 8 5
12 -2 12 -9 0 -12 26 -10 93 l2 92 66 70 66 70 -67 -65 c-78 -74 -92 -71 -20
5 38 40 39 43 7 12 -23 -20 -44 -37 -48 -37 -4 0 -5 15 -3 33 4 27 -2 39 -37
75 -48 49 -39 57 13 10 26 -25 25 -22 -7 12 -54 58 -56 77 -3 25 22 -21 40
-34 40 -28 0 7 -5 15 -11 19 -8 5 -8 8 0 13 7 5 1 16 -16 32 -25 22 -26 22 -9
1 29 -34 14 -36 -19 -2 l-28 29 24 -1 c13 -1 32 -8 42 -17z m687 15 c0 -2 -11
-13 -24 -25 l-24 -23 1 24 c2 16 8 23 24 24 13 1 23 1 23 0z m203 -40 c-37
-40 -37 -40 9 3 67 63 73 42 7 -27 l-54 -57 60 58 c85 80 94 71 11 -12 -50
-51 -68 -76 -68 -96 l0 -26 -27 25 c-42 40 -49 31 -10 -11 20 -21 36 -49 37
-62 1 -22 -5 -19 -53 29 -66 65 -64 82 3 19 l47 -44 -50 53 c-27 29 -51 48
-53 43 -4 -12 -42 -2 -42 11 0 7 -5 6 -13 0 -7 -6 -23 -8 -36 -5 -22 6 -21 7
16 47 24 26 27 31 7 13 -16 -15 -33 -27 -36 -27 -18 0 -1 49 26 78 l31 33 113
-2 113 -2 -38 -41z m137 24 c12 -8 4 -20 -43 -68 -40 -40 -67 -59 -83 -59 -13
0 -24 2 -24 5 0 8 123 132 130 132 3 0 12 -5 20 -10z m-2240 -20 c0 -5 -2 -10
-4 -10 -3 0 -8 5 -11 10 -3 6 -1 10 4 10 6 0 11 -4 11 -10z m2280 3 c0 -4 -21
-30 -47 -58 l-48 -50 51 48 c54 51 70 53 104 12 11 -13 9 -20 -11 -43 l-24
-27 26 23 c30 26 35 27 43 5 5 -11 -8 -32 -41 -67 l-48 -51 52 49 c74 70 80
48 7 -25 -55 -56 -59 -58 -65 -37 -5 18 5 35 45 78 l51 55 -50 -48 c-28 -26
-53 -47 -57 -47 -3 0 -9 8 -12 17 -5 11 8 32 41 67 l48 51 -51 -48 c-35 -33
-56 -46 -67 -41 -9 3 -17 9 -17 12 0 4 21 29 47 57 l48 50 -55 -51 c-34 -31
-62 -49 -72 -47 -10 3 -18 7 -18 11 0 9 103 112 112 112 4 0 8 -3 8 -7z
m-3493 -119 c-10 -10 -22 -2 -64 38 -40 40 -49 53 -40 64 10 10 22 2 64 -38
40 -40 49 -53 40 -64z m1882 -27 c-7 -15 -15 -27 -18 -26 -3 1 -28 27 -56 58
l-49 56 52 -49 c66 -64 78 -56 13 8 -39 38 -47 51 -38 62 10 10 22 3 60 -35
45 -45 47 -49 36 -74z m365 106 c5 -11 -8 -31 -41 -65 -42 -43 -49 -46 -62
-33 -14 13 -10 21 34 65 54 55 60 58 69 33z m-2279 -102 c-3 -3 -27 15 -53 40
-41 38 -40 36 8 -14 67 -71 55 -76 -16 -6 -41 41 -50 54 -41 65 10 10 22 3 59
-34 26 -25 45 -48 43 -51z m1235 36 c0 -5 -6 -4 -14 2 -11 9 -15 9 -19 -1 -2
-7 -4 0 -4 15 0 27 0 27 18 11 11 -9 19 -21 19 -27z m1079 17 c11 -24 9 -30
-16 -58 -25 -28 -25 -29 -2 -8 14 12 28 22 31 22 9 0 10 -343 2 -364 -6 -15
-10 -14 -35 10 -16 15 -29 23 -29 18 0 -6 13 -23 30 -39 16 -16 27 -31 25 -34
-3 -2 -27 15 -53 40 l-47 44 50 -53 c60 -63 47 -70 -15 -7 -24 25 -49 45 -54
45 -6 0 14 -24 43 -54 41 -41 51 -58 44 -70 -7 -13 -18 -7 -63 39 -67 67 -55
73 15 8 l50 -48 -52 55 -52 55 -1 159 -1 160 53 53 c29 29 55 53 59 53 3 0 11
-12 18 -26z m121 -17 c0 -6 -9 -2 -20 8 -11 10 -20 23 -20 28 0 6 9 2 20 -8
11 -10 20 -23 20 -28z m-2498 -32 c39 -39 56 -63 56 -81 0 -24 -6 -21 -65 38
-46 46 -62 69 -57 81 3 9 7 17 9 17 1 0 27 -25 57 -55z m1909 -2 c34 -36 56
-67 57 -82 1 -21 -7 -16 -63 39 -37 36 -63 71 -62 81 1 11 4 19 7 19 3 0 31
-26 61 -57z m-874 -99 c-10 -10 -22 -2 -64 38 -40 40 -49 53 -40 64 10 10 22
2 64 -38 40 -40 49 -53 40 -64z m41 88 c20 -30 11 -28 -19 4 -13 15 -18 25
-10 22 8 -2 21 -14 29 -26z m2233 -39 c42 -43 66 -77 67 -92 1 -21 -10 -14
-73 49 -41 41 -72 76 -69 79 2 3 35 -24 72 -60 66 -63 66 -63 -8 14 -41 42
-70 77 -64 77 5 0 39 -30 75 -67z m-3319 -8 c59 -59 65 -69 65 -106 l0 -40
-68 67 c-38 37 -66 70 -63 73 2 3 33 -22 67 -55 l62 -59 -67 70 c-87 90 -89
110 -3 25 36 -35 65 -60 65 -54 0 6 -29 39 -65 73 -59 57 -71 71 -62 71 2 0
33 -29 69 -65z m1976 -92 c0 -22 -8 -17 -74 48 -40 40 -71 75 -68 78 2 3 35
-24 72 -60 l67 -64 -67 70 c-89 92 -88 109 1 21 48 -48 69 -75 69 -93z m1756
130 c5 -11 -6 -30 -31 -57 l-38 -41 38 34 c41 38 50 32 15 -8 -20 -22 -20 -23
-2 -8 11 9 23 17 26 17 4 0 5 -55 4 -123 -2 -146 -19 -191 -98 -262 -72 -64
-117 -75 -315 -75 l-164 0 3 73 c3 64 5 72 22 69 10 -2 30 -1 43 3 20 5 23 8
13 20 -19 23 1 18 27 -7 13 -12 23 -16 23 -10 0 6 7 9 18 5 9 -3 -5 17 -33 46
-67 69 -45 65 29 -6 l60 -58 -67 72 c-93 98 -84 105 12 9 l79 -79 53 7 c116
16 149 57 149 191 l0 89 57 58 c32 32 60 58 64 58 4 0 10 -8 13 -17z m-2717
-119 c-10 -10 -22 -2 -64 38 -40 40 -49 53 -40 64 10 10 22 2 64 -38 40 -40
49 -53 40 -64z m2371 -71 c0 -22 -8 -17 -74 48 -40 40 -71 75 -68 78 2 3 35
-24 72 -60 l67 -64 -72 75 c-95 99 -94 116 1 21 52 -52 74 -80 74 -98z m-1477
80 c42 -43 66 -77 67 -92 1 -21 -10 -14 -73 49 -41 41 -72 76 -69 79 2 3 35
-24 72 -60 66 -63 66 -63 -8 14 -41 42 -70 77 -64 77 5 0 39 -30 75 -67z
m-1843 -120 c0 -23 -7 -18 -68 42 -47 47 -67 74 -67 92 0 23 6 18 67 -42 47
-47 68 -74 68 -92z m1562 67 l0 -69 -72 -3 c-69 -3 -73 -4 -76 -28 -2 -14 -22
-45 -45 -70 l-42 -45 44 40 43 40 -4 -38 c-3 -32 -1 -38 18 -43 12 -3 30 -4
40 -2 17 3 19 -5 22 -69 l3 -73 -146 0 -145 0 0 70 c0 70 0 70 28 70 21 0 45
18 107 82 l80 83 -72 -70 c-72 -68 -73 -69 -73 -40 0 23 16 46 73 105 l72 75
-72 -70 c-72 -68 -73 -69 -73 -40 0 23 15 44 67 97 l67 68 78 0 78 0 0 -70z
m1758 -97 c0 -22 -8 -17 -74 48 -40 40 -71 75 -68 78 2 3 35 -24 72 -60 l67
-64 -72 75 c-95 99 -94 116 1 21 52 -52 74 -80 74 -98z m-1414 8 c-6 -6 -144
130 -144 143 0 6 34 -23 75 -64 41 -41 72 -76 69 -79z m-1904 -35 c0 -6 -30
19 -67 54 l-67 65 69 -77 c39 -42 79 -89 91 -104 19 -26 26 -28 110 -32 l89
-4 55 -52 55 -51 -48 50 c-65 70 -59 82 8 15 46 -45 52 -56 39 -63 -12 -7 -28
2 -65 39 -27 27 -49 44 -49 38 0 -5 18 -28 40 -49 34 -33 38 -41 24 -48 -11
-6 -23 -2 -42 15 -21 18 -23 19 -9 2 21 -25 23 -41 2 -24 -10 9 -15 9 -15 1 0
-15 -160 -15 -211 0 -81 25 -149 113 -149 194 0 30 3 36 12 27 22 -22 32 -12
11 11 -11 12 -20 33 -21 46 -1 22 3 20 46 -22 68 -67 77 -58 11 11 -34 35 -56
66 -57 81 -1 21 8 15 68 -44 39 -38 70 -74 70 -79z m1845 74 c38 -38 67 -72
64 -74 -3 -3 -38 28 -79 69 -41 41 -70 75 -64 75 5 0 41 -31 79 -70z m1469
-99 c-6 -6 -144 130 -144 143 0 6 34 -23 75 -64 41 -41 72 -76 69 -79z m-1405
-7 c0 -7 10 -22 20 -35 17 -22 28 -24 105 -26 87 -2 118 -9 97 -22 -7 -4 8
-24 37 -52 45 -42 45 -42 9 -4 -52 57 -46 68 8 15 38 -37 42 -46 29 -53 -12
-7 -26 1 -56 29 -39 38 -40 38 -18 7 13 -18 27 -33 32 -33 14 0 8 -18 -8 -24
-9 -4 -24 -1 -32 6 -12 10 -14 10 -8 1 11 -20 -174 -17 -222 2 -48 20 -109 80
-122 119 -12 40 -19 106 -11 106 4 0 13 -6 21 -12 8 -7 4 -1 -9 14 -34 38 -21
45 14 8 16 -17 33 -30 39 -30 6 0 -10 20 -34 45 -59 60 -39 58 25 -2 45 -43
44 -42 -7 12 -32 33 -58 65 -58 70 0 12 147 -127 149 -141z m-1119 41 c7 -8
11 -18 8 -20 -2 -3 -26 19 -54 47 -49 51 -49 51 -8 20 22 -17 47 -38 54 -47z
m2465 5 c38 -38 67 -72 64 -74 -3 -3 -38 28 -79 69 -41 41 -70 75 -64 75 5 0
41 -31 79 -70z m-2478 -56 c-10 -10 -22 -2 -64 38 -40 40 -49 53 -40 64 10 10
22 2 64 -38 40 -40 49 -53 40 -64z m-22 -33 c-3 -3 -29 17 -58 45 l-52 49 55
-58 c30 -31 60 -55 67 -52 10 3 13 -14 13 -70 l0 -75 -140 0 -140 0 0 65 c0
36 0 68 0 72 0 4 18 7 40 7 23 0 39 4 37 10 -2 6 1 16 7 22 8 9 18 6 39 -14
15 -14 27 -21 27 -16 0 6 -11 21 -24 33 -19 18 -22 26 -13 36 10 11 21 5 60
-33 26 -25 47 -42 47 -36 0 5 -20 29 -44 53 -35 34 -42 46 -33 57 10 10 22 2
64 -39 29 -28 50 -53 48 -56z m2469 0 c-5 -5 -54 47 -54 57 0 3 13 -7 30 -23
16 -16 27 -31 24 -34z m-2824 -65 c0 -6 -25 14 -55 44 -30 30 -55 59 -55 64 0
6 25 -14 55 -44 30 -30 55 -59 55 -64z m-28 -28 c-18 -18 -116 79 -99 98 10
10 22 3 62 -36 39 -39 47 -52 37 -62z m1885 -14 c-10 -10 -23 -2 -64 39 -68
66 -59 76 10 11 52 -49 52 -49 9 -4 -58 63 -53 75 7 16 39 -38 47 -51 38 -62z
m411 77 c12 -10 22 -21 22 -25 0 -9 -49 27 -50 37 0 11 5 9 28 -12z m-4058
-649 c0 -3 -15 -22 -32 -42 -22 -23 -16 -20 15 10 63 60 60 39 -5 -30 l-53
-55 60 57 c40 38 67 57 83 55 12 0 22 -4 22 -6 0 -3 -26 -33 -57 -66 l-58 -60
65 61 c41 39 71 59 83 57 25 -6 22 -12 -30 -68 l-48 -50 51 48 c35 33 56 46
67 41 25 -9 22 -15 -32 -68 -44 -43 -51 -47 -71 -36 -35 19 -120 19 -129 0 -5
-8 -6 -21 -4 -27 7 -19 -2 -16 -23 9 -18 20 -18 21 -1 15 10 -4 16 -3 13 2 -3
5 -17 9 -32 9 l-26 0 35 -37 c18 -20 34 -47 35 -60 1 -21 -7 -17 -61 37 -35
34 -68 62 -75 62 -6 0 -12 5 -12 12 0 9 -3 9 -12 0 -27 -27 -29 -9 -2 21 l29
32 -38 -34 c-46 -43 -50 -21 -4 29 32 34 32 35 1 7 -47 -42 -53 -32 -9 15 23
25 27 31 9 15 -16 -15 -32 -27 -35 -27 -4 0 -4 31 0 66 1 12 281 17 281 6z
m376 -1 c25 21 25 3 0 -20 l-23 -22 0 28 c0 15 2 22 4 15 4 -10 8 -10 19 -1z
m212 -20 c-21 -24 -20 -23 8 2 l31 28 6 -23 c5 -17 -3 -32 -31 -63 -26 -28
-28 -32 -6 -12 37 33 41 33 38 5 -1 -13 -3 -30 -3 -39 -1 -12 -10 -16 -33 -15
l-33 1 -3 -76 -3 -75 -68 -68 c-66 -66 -69 -67 -69 -39 0 19 13 42 41 73 l42
45 -41 -38 -42 -39 -1 103 c-1 56 -4 105 -6 109 -3 4 -18 6 -35 4 -38 -5 -38
2 3 46 l32 35 -31 -28 -31 -28 -1 28 c0 18 11 40 31 61 l32 33 98 -2 97 -2
-22 -26z m374 -26 l-47 -50 53 50 c33 31 62 50 77 50 14 1 25 -1 25 -4 0 -3
-30 -36 -67 -73 -50 -51 -74 -68 -95 -68 -17 0 -34 -9 -47 -26 -19 -25 -21
-40 -21 -191 0 -161 0 -164 25 -188 22 -23 32 -25 117 -25 l94 0 53 -54 c44
-45 50 -54 35 -60 -12 -5 -29 5 -59 34 -56 55 -70 51 -15 -5 51 -52 44 -61
-10 -12 l-35 32 29 -32 c16 -18 27 -35 24 -38 -3 -3 -11 1 -18 10 -7 8 -17 15
-22 15 -6 0 -5 -7 2 -15 11 -13 2 -15 -75 -15 -82 0 -87 1 -74 18 12 15 12 15
-7 -1 -20 -17 -24 -17 -63 -1 -22 9 -41 19 -41 22 0 4 21 29 47 57 l48 50 -58
-55 c-69 -66 -76 -56 -9 15 l47 50 -52 -49 c-68 -65 -82 -51 -17 17 l49 52
-50 -47 c-28 -27 -53 -48 -57 -48 -3 0 -15 23 -27 51 -19 42 -20 53 -9 67 10
12 10 14 1 8 -10 -6 -13 31 -13 172 0 168 1 182 23 223 26 49 87 97 138 109
19 4 60 7 91 6 l58 -1 -48 -50z m746 16 l-33 -36 40 38 c39 36 43 37 113 37
l72 0 0 -110 0 -110 -70 0 -70 0 -1 38 c-1 20 -1 41 0 46 1 5 -5 4 -13 -3 -8
-7 -20 -10 -26 -6 -6 4 -17 1 -25 -5 -8 -6 -20 -8 -27 -4 -7 4 -4 -2 6 -14 27
-31 14 -37 -14 -7 -13 14 -28 25 -34 25 -5 0 8 -18 29 -40 52 -53 33 -51 -25
2 -39 37 -37 35 8 -12 73 -77 65 -87 -10 -14 -58 56 -67 61 -110 63 l-48 2 0
-36 0 -35 -70 0 -70 0 0 110 0 111 206 -2 206 -1 -34 -37z m288 30 c25 21 25
3 0 -20 l-23 -22 0 28 c0 15 2 22 4 15 4 -10 8 -10 19 -1z m207 -25 c-27 -30
-27 -30 8 2 36 33 36 33 42 10 5 -17 -2 -32 -31 -63 -26 -28 -28 -32 -6 -12
37 33 41 33 38 5 -1 -13 -3 -30 -3 -39 -1 -12 -10 -16 -33 -15 l-33 1 -3 -76
-3 -75 -68 -68 c-66 -66 -69 -67 -69 -39 0 19 13 42 41 73 l42 45 -41 -38 -42
-39 -1 103 c-1 56 -4 105 -6 109 -3 4 -18 6 -35 4 -16 -2 -30 -1 -30 3 0 4 17
25 38 48 l37 40 -36 -33 -36 -34 -1 29 c0 18 11 40 31 61 l32 33 98 -2 97 -2
-27 -31z m332 15 c-5 14 7 16 87 14 87 -1 168 -17 168 -34 0 -4 -24 -30 -52
-58 l-53 -51 -77 2 -77 1 -48 48 c-27 26 -53 47 -58 47 -5 0 12 -21 37 -47 37
-38 44 -50 34 -60 -11 -9 -25 0 -66 42 -48 49 -51 53 -31 60 11 3 21 10 21 15
0 4 8 11 17 14 11 5 31 -7 62 -36 l46 -43 -38 40 c-44 48 -50 71 -7 30 16 -16
32 -26 35 -23 3 2 -4 13 -15 23 -11 10 -20 23 -20 28 0 6 9 2 20 -8 16 -14 19
-15 15 -4z m771 -201 c74 -118 140 -217 146 -219 6 -2 8 2 3 9 -5 8 17 38 61
84 l69 71 -67 -65 c-72 -68 -95 -65 -30 5 l37 40 -36 -33 -37 -34 -1 104 c-2
102 -2 103 -33 133 -18 17 -24 21 -15 9 23 -28 22 -41 -2 -20 -10 9 -18 28
-18 42 l0 26 33 -33 c19 -18 34 -28 34 -23 0 6 -15 25 -34 43 -20 20 -33 42
-33 58 l0 25 33 -33 c38 -37 46 -29 12 10 l-23 25 27 -17 c18 -11 26 -13 22
-4 -3 9 14 12 70 12 71 0 77 -2 109 -33 23 -22 34 -42 33 -58 0 -13 -5 -24
-10 -24 -5 0 -3 -7 4 -15 23 -28 -4 -15 -38 18 -18 17 -30 24 -27 15 4 -9 13
-19 21 -22 8 -3 14 -11 14 -18 0 -9 -3 -9 -12 0 -7 7 -15 12 -18 12 -4 0 -6
-51 -5 -112 l1 -113 -56 -60 -55 -60 52 49 c29 28 55 47 59 43 3 -3 -20 -34
-52 -69 -53 -58 -54 -59 -8 -15 70 66 80 59 14 -10 -42 -45 -44 -48 -10 -15
25 23 48 42 51 42 17 0 -3 -57 -32 -88 -30 -32 -30 -34 -3 -9 16 15 32 27 35
27 12 0 0 -52 -16 -72 -11 -13 -13 -17 -5 -10 8 6 17 12 20 12 9 0 6 -43 -3
-57 -5 -7 -4 -13 1 -13 5 0 7 -14 4 -30 l-4 -31 -71 3 -71 3 -134 213 c-74
117 -135 212 -136 210 0 -2 -32 -37 -71 -78 l-70 -75 68 65 c66 64 67 64 67
35 0 -23 -15 -45 -67 -100 l-68 -70 66 63 c65 63 67 63 67 35 0 -21 -16 -45
-66 -98 l-67 -70 66 63 66 63 1 -42 c1 -23 -4 -49 -11 -57 -9 -13 -9 -14 1 -8
6 4 12 2 12 -3 0 -6 16 -11 35 -11 l35 0 0 -70 0 -70 -145 0 -145 0 0 70 0 70
33 1 c27 1 44 13 107 82 l74 82 -66 -64 -66 -63 0 63 0 64 66 70 67 70 -66
-63 -66 -64 -1 79 c-1 77 0 79 36 118 l37 40 -37 -34 -38 -35 0 30 c0 17 5 35
10 40 7 7 -4 11 -32 13 -23 1 -45 4 -50 7 -10 6 -11 128 -1 138 4 3 54 5 111
4 l104 -3 134 -215z m359 172 c-7 -7 -45 29 -45 41 0 6 11 0 25 -13 14 -13 23
-26 20 -28z m486 -24 c12 -40 51 -173 88 -295 l67 -222 -65 -65 c-51 -49 -73
-64 -94 -64 -28 0 -27 3 40 72 l68 71 -75 -72 c-98 -95 -125 -95 -35 -1 l70
73 -67 -65 c-80 -76 -91 -70 -15 10 44 47 46 49 7 12 -25 -23 -48 -42 -52 -42
-10 0 -6 50 4 56 6 4 5 9 -2 14 -7 5 -2 8 14 8 26 0 26 -1 9 -22 -11 -14 -8
-13 10 4 24 23 26 29 17 61 -9 33 -13 36 -40 33 -36 -4 -37 2 -8 35 17 20 14
19 -12 -5 -31 -27 -80 -43 -80 -26 0 3 21 29 47 57 43 45 42 44 -12 -7 -86
-82 -93 -72 -10 15 l70 72 -76 -73 c-51 -50 -80 -71 -91 -67 -11 5 -18 -1 -23
-17 -17 -61 -18 -58 17 -58 l33 0 0 -70 0 -70 -142 0 -143 0 0 70 0 70 33 0
34 0 73 243 c40 133 79 263 87 290 l14 47 109 0 109 0 22 -72z m341 33 c-28
32 -29 48 0 23 17 -15 20 -16 16 -3 -5 14 4 16 68 15 l74 -2 58 -59 57 -60
-55 53 c-76 72 -88 66 -15 -8 49 -50 61 -57 68 -44 7 12 -3 29 -44 70 -63 64
-55 73 11 12 34 -33 37 -34 12 -8 -40 45 -42 64 -2 25 31 -30 42 -25 13 7 -15
17 -14 18 28 14 25 -3 58 -10 74 -16 117 -44 178 -192 126 -305 -15 -34 -146
-174 -170 -183 -4 -1 -13 9 -19 23 -11 23 -17 25 -75 25 l-63 0 -54 -57 -55
-58 53 50 c59 56 71 41 15 -20 l-38 -40 36 33 37 34 0 -27 c0 -17 13 -40 34
-63 19 -20 35 -48 36 -61 1 -23 0 -23 -34 9 -46 45 -44 26 3 -22 34 -35 35
-37 12 -36 -13 1 -30 6 -36 11 -9 6 -13 5 -13 -2 0 -9 -32 -11 -112 -10 -62 2
-107 4 -100 7 10 3 10 7 1 18 -16 20 1 17 24 -3 19 -18 19 -17 6 5 -8 12 -17
22 -20 22 -4 0 -10 8 -14 18 -3 10 8 3 27 -15 52 -50 58 -39 8 12 -51 52 -44
61 10 13 l35 -33 -30 35 c-17 19 -33 36 -37 38 -5 2 -8 9 -8 15 0 6 13 -1 28
-16 35 -34 54 -36 22 -2 -22 23 -16 37 6 15 12 -12 13 -4 13 160 l1 125 69 69
69 68 -2 -63 c0 -35 -4 -69 -8 -75 -5 -8 17 -12 76 -13 75 -2 87 1 110 21 41
36 44 79 9 117 -18 20 -38 32 -58 33 -20 1 -46 16 -80 47 -47 43 -48 44 -12 6
47 -52 48 -67 2 -26 -45 40 -58 40 -20 1 27 -28 24 -45 -3 -18 -9 9 -12 9 -12
-3 0 -8 -31 -46 -70 -84 -68 -68 -70 -69 -70 -40 0 21 13 43 48 80 l47 50 -47
-45 -48 -44 0 35 c0 28 -8 43 -40 74 -50 48 -43 61 8 14 32 -30 32 -28 -5 11
-54 58 -56 77 -3 25 22 -21 40 -35 40 -29 0 6 -16 25 -35 44 -47 46 -45 63 2
19 21 -18 28 -22 15 -8z m674 30 c25 21 25 3 0 -20 l-23 -22 0 28 c0 15 2 22
4 15 4 -10 8 -10 19 -1z m224 0 c0 -2 -8 -14 -17 -25 -10 -12 -3 -8 15 8 l32
30 0 -29 c0 -19 -12 -42 -32 -65 l-33 -35 33 29 32 30 0 -41 c0 -39 -1 -40
-32 -39 l-33 1 -3 -76 -3 -75 -68 -68 c-66 -66 -69 -67 -69 -39 0 19 13 42 41
73 l42 45 -41 -38 -42 -39 -1 103 c-1 56 -4 105 -6 109 -3 4 -18 6 -35 4 -38
-5 -38 2 3 46 l32 35 -32 -29 -33 -30 0 29 c0 19 11 40 33 63 l32 33 93 -2
c50 -2 92 -5 92 -8z m150 5 c0 -2 -11 -13 -24 -25 l-23 -22 0 23 c0 17 6 23
23 24 13 1 24 1 24 0z m13 -58 c-57 -57 -58 -58 -61 -32 -5 37 48 91 89 91
l30 0 -58 -59z m57 -13 c-50 -50 -80 -72 -96 -72 -13 0 -24 2 -24 5 0 4 30 36
66 73 51 52 71 66 95 66 30 0 29 -2 -41 -72z m130 67 c0 -4 -28 -36 -62 -72
-62 -64 -62 -64 12 8 42 39 80 72 85 72 5 0 -22 -33 -60 -72 l-70 -73 77 74
c43 41 81 72 85 68 4 -4 -22 -38 -58 -75 l-64 -67 75 73 75 72 78 0 77 0 0
-110 0 -110 -70 0 -70 0 0 34 c0 37 -9 43 -58 40 l-34 -2 44 47 43 46 -52 -49
c-74 -70 -79 -48 -7 27 57 60 56 59 -14 -8 l-72 -69 0 -68 c0 -47 -4 -68 -12
-68 -7 0 19 -31 57 -70 92 -92 72 -90 -25 3 l-75 72 69 -72 c39 -40 68 -75 65
-77 -3 -3 -38 28 -79 69 -41 41 -79 75 -84 75 -6 0 21 -31 59 -70 92 -92 72
-90 -25 3 l-75 72 65 -68 65 -67 -4 -70 c-3 -70 9 -107 31 -94 6 4 34 -18 64
-47 30 -29 54 -49 54 -44 0 5 -19 28 -42 52 -38 39 -39 42 -17 41 13 -1 33 -9
43 -17 18 -15 19 -15 14 0 -4 11 9 31 38 60 48 47 61 43 17 -5 -22 -24 -19
-22 14 7 24 20 48 34 56 31 9 -3 14 -33 15 -109 l2 -105 -78 0 -78 0 -69 70
c-38 39 -74 70 -79 70 -6 0 20 -31 58 -69 61 -62 65 -68 43 -68 -18 0 -45 20
-93 68 -49 49 -71 65 -77 56 -7 -9 -10 -9 -14 1 -2 6 -10 12 -16 12 -6 0 20
-31 58 -70 38 -38 65 -70 59 -70 -5 0 -40 31 -77 68 l-68 68 2 97 c1 83 4 96
16 86 10 -9 11 -14 2 -19 -6 -4 1 -7 16 -7 l27 0 -30 31 c-16 17 -29 42 -30
55 -1 22 6 18 56 -32 32 -31 62 -57 67 -57 5 0 -21 30 -57 68 l-67 67 -2 78
-2 78 67 68 c47 47 76 69 92 69 13 0 24 -3 24 -6z m657 -7 c46 -19 54 -19 47
3 -5 13 -4 14 4 3 7 -9 12 -10 16 -2 4 6 12 11 18 11 7 0 -1 -15 -18 -32 l-29
-33 37 34 c52 47 61 30 12 -22 -37 -40 -36 -39 11 5 33 31 57 46 70 43 11 -2
22 -4 25 -4 2 -1 -29 -36 -70 -78 l-75 -78 73 70 c39 38 72 65 72 60 0 -5 -35
-46 -77 -90 l-78 -80 70 68 c39 37 73 67 77 67 21 0 -2 -52 -41 -95 -43 -47
-43 -48 -6 -12 23 20 43 37 46 37 8 0 5 -43 -4 -57 -4 -6 -1 -13 5 -15 7 -3
-15 -5 -50 -5 l-63 0 53 56 53 56 -61 -58 -61 -59 -46 35 c-74 56 -171 61
-204 11 -34 -52 13 -94 131 -115 51 -10 65 -16 61 -27 -4 -12 -2 -12 9 -3 13
11 46 6 46 -7 0 -3 -15 -22 -32 -42 -30 -32 -30 -32 9 4 58 54 67 37 12 -22
l-44 -47 46 43 c49 46 66 47 99 7 11 -14 7 -23 -36 -68 l-49 -52 50 48 c28 26
53 47 57 47 8 0 29 -58 34 -95 4 -27 -7 -41 -96 -130 -55 -54 -103 -96 -107
-92 -4 4 40 56 98 115 l104 107 -115 -112 c-63 -62 -120 -113 -125 -113 -5 0
46 57 115 128 l125 127 -130 -127 c-110 -108 -134 -127 -153 -121 -22 5 -20 9
40 72 l63 66 -71 -68 -71 -69 -37 16 c-20 8 -38 14 -40 13 -2 -1 -25 17 -50
41 -25 24 -46 38 -46 32 0 -6 -5 -8 -10 -5 -6 4 -8 11 -4 16 3 6 -3 21 -15 33
-20 21 -25 58 -8 64 19 6 134 1 147 -8 12 -7 11 -12 -5 -32 l-20 -23 22 19
c21 18 24 18 49 1 l26 -17 -43 -46 -44 -47 51 48 c27 26 53 45 56 42 3 -3 31
-7 62 -8 l56 -3 77 81 c43 44 53 56 23 27 -31 -28 -58 -52 -61 -52 -3 0 -5 11
-4 25 0 15 18 43 45 72 l45 48 -51 -48 c-35 -33 -56 -46 -67 -41 -9 3 -17 9
-17 12 0 4 21 29 47 57 l48 50 -55 -51 -55 -50 -55 13 c-155 37 -218 68 -259
129 -26 38 -37 104 -27 159 9 45 68 112 121 136 50 23 171 25 222 4z m-5337
-42 l-45 -48 52 49 c75 71 79 47 4 -28 -49 -49 -69 -63 -93 -64 -31 -1 -31 0
38 69 77 77 113 95 44 22z m35 -33 c-33 -33 -64 -60 -69 -60 -6 0 18 29 54 65
35 35 66 62 69 59 3 -2 -22 -31 -54 -64z m112 26 l28 -25 -50 -53 -50 -53 51
48 c68 64 78 47 12 -22 l-53 -56 50 48 c63 58 83 62 30 5 -37 -40 -37 -41 -4
-10 43 40 60 30 22 -12 -26 -29 -26 -30 -2 -8 l26 22 1 -40 2 -40 -70 0 c-68
0 -70 1 -70 26 0 28 -17 65 -34 76 -7 5 8 27 39 60 l50 53 -57 -54 c-32 -30
-61 -52 -65 -48 -8 9 86 107 104 107 6 0 25 -11 40 -24z m1613 4 c12 -8 6 -19
-37 -62 -67 -67 -83 -54 -17 15 l49 52 -50 -47 c-67 -64 -83 -62 -20 2 54 54
53 54 75 40z m-2605 -40 c18 -20 18 -22 -30 -70 -69 -70 -81 -63 -15 7 l55 58
-52 -49 c-45 -43 -54 -47 -68 -36 -14 12 -11 19 32 62 26 26 50 48 54 48 3 0
14 -9 24 -20z m2209 -29 c37 -37 46 -53 39 -65 -7 -13 -18 -7 -63 39 -67 67
-55 73 15 8 l50 -48 -55 58 c-66 69 -54 77 14 8z m376 -8 l-55 -58 50 48 c28
26 53 47 57 47 3 0 13 -19 22 -41 16 -39 16 -43 -1 -63 -17 -20 -17 -20 0 -7
17 13 18 5 17 -166 -1 -99 -6 -186 -10 -194 -7 -11 -18 -6 -52 26 l-43 40 43
-45 c23 -25 42 -48 42 -51 0 -3 -11 -19 -25 -35 l-25 -29 -27 28 c-15 15 -22
27 -16 27 7 0 19 -10 27 -22 9 -12 18 -20 21 -17 2 3 -17 25 -42 50 -26 24
-39 34 -29 21 27 -31 15 -37 -14 -7 -13 14 -19 25 -12 25 6 0 14 10 17 21 7
20 11 18 56 -27 27 -26 51 -45 54 -42 3 2 -19 28 -49 56 l-55 52 -2 166 -2
165 44 45 c24 24 48 44 53 44 6 0 -14 -26 -44 -57z m1675 -11 c-7 -7 -45 29
-45 41 0 6 11 0 25 -13 14 -13 23 -26 20 -28z m-2017 -109 c0 -23 -6 -19 -65
39 -48 48 -62 69 -57 82 6 15 16 9 64 -39 40 -39 58 -65 58 -82z m-2204 110
c5 -12 -10 -35 -51 -77 l-58 -61 55 53 c31 28 58 52 62 52 17 0 25 -69 24
-196 -1 -123 -4 -144 -23 -180 -36 -67 -70 -101 -135 -133 -61 -31 -61 -31
-235 -31 l-173 0 0 70 0 70 33 2 c17 0 38 1 46 1 9 -1 10 2 2 10 -23 23 -10
29 14 7 14 -13 25 -19 25 -12 0 6 -11 19 -23 29 -19 14 -24 28 -24 61 l0 43
58 -57 c72 -71 69 -87 -4 -18 l-52 49 55 -58 c30 -32 56 -53 58 -47 3 7 8 7
18 -1 20 -17 122 -4 153 19 59 44 65 62 65 202 l1 129 45 46 c49 50 55 53 64
28z m-326 -170 c0 -23 -7 -18 -68 42 -47 47 -67 74 -67 92 0 23 6 18 67 -42
47 -47 68 -74 68 -92z m1756 18 c-6 -6 -134 120 -134 133 0 6 31 -21 70 -59
38 -38 67 -71 64 -74z m774 -28 c0 -23 -7 -18 -68 42 -47 47 -67 74 -67 92 0
23 6 18 67 -42 47 -47 68 -74 68 -92z m-833 67 c38 -38 67 -72 64 -74 -3 -3
-38 28 -79 69 -41 41 -70 75 -64 75 5 0 41 -31 79 -70z m59 -109 c-6 -6 -122
108 -136 134 -6 11 24 -14 66 -54 41 -41 73 -77 70 -80z m-1756 -18 c0 -23 -7
-18 -68 42 -47 47 -67 74 -67 92 0 23 6 18 67 -42 47 -47 68 -74 68 -92z
m2530 -10 c0 -23 -7 -18 -68 42 -47 47 -67 74 -67 92 0 23 6 18 67 -42 47 -47
68 -74 68 -92z m-837 70 c39 -40 66 -77 67 -90 0 -13 -1 -23 -2 -23 -11 0
-145 145 -136 148 8 3 7 8 -1 18 -6 8 -7 14 -2 14 4 0 38 -30 74 -67z m4177
-17 c42 -44 63 -86 43 -86 -4 0 -37 31 -75 69 -61 62 -65 69 -43 69 17 0 41
-17 75 -52z m35 35 c11 -13 22 -61 13 -61 -1 0 -19 17 -40 39 -37 38 -37 39
-12 39 14 0 31 -8 39 -17z m-5905 -148 c0 -23 -7 -18 -68 42 -47 47 -67 74
-67 92 0 23 6 18 67 -42 47 -47 68 -74 68 -92z m566 53 l-69 -71 66 63 66 64
1 -113 1 -112 42 -43 c50 -51 42 -59 -11 -12 -32 30 -32 30 4 -9 22 -24 37
-45 35 -48 -3 -3 -16 6 -29 20 -13 14 -28 25 -34 25 -5 0 7 -17 28 -39 l37
-38 -138 -1 -139 0 -1 35 -1 35 27 -26 c42 -40 49 -31 10 12 -20 20 -36 48
-37 61 -1 23 0 23 34 -9 37 -37 48 -31 12 7 -20 22 -13 34 8 13 7 -7 11 4 12
32 3 38 11 51 70 113 l67 70 -66 -63 c-65 -63 -67 -63 -67 -35 0 21 15 44 66
96 37 37 69 62 71 56 2 -6 -28 -43 -65 -83z m1620 0 l-69 -71 66 64 67 63 0
-63 c0 -62 -1 -65 -46 -114 l-47 -50 46 43 46 43 1 -43 c2 -35 9 -49 44 -85
49 -50 40 -58 -12 -11 -32 30 -32 30 4 -9 22 -24 37 -45 35 -48 -3 -3 -16 6
-29 20 -13 14 -28 25 -34 25 -5 0 7 -17 28 -39 l37 -38 -138 -1 -139 0 -1 35
-1 35 27 -26 c42 -40 49 -31 10 12 -20 20 -36 48 -37 61 -1 23 0 23 34 -9 37
-37 48 -31 12 7 -20 22 -13 34 8 13 7 -7 11 4 12 32 3 38 11 51 70 113 l67 70
-66 -63 c-65 -63 -67 -63 -67 -35 0 21 15 44 66 96 37 37 69 62 71 56 2 -6
-28 -43 -65 -83z m344 -63 c0 -23 -7 -18 -68 42 -47 47 -67 74 -67 92 0 23 6
18 67 -42 47 -47 68 -74 68 -92z m2826 63 l-69 -71 66 63 c65 63 67 63 67 35
0 -21 -16 -45 -66 -98 l-67 -70 66 63 66 63 1 -43 c2 -36 -3 -48 -35 -83 l-38
-40 38 34 37 35 0 -30 c0 -21 10 -40 34 -63 20 -20 34 -42 34 -57 l0 -25 -27
25 c-43 41 -49 30 -8 -12 l38 -39 -130 -1 c-137 -1 -146 2 -149 47 l-1 24 28
-27 c42 -40 50 -31 10 12 -20 20 -36 48 -37 61 l-1 24 28 -27 c35 -33 52 -34
21 -1 -22 23 -16 37 6 15 7 -7 11 4 12 32 3 38 11 51 70 113 l67 70 -66 -63
c-65 -63 -67 -63 -67 -35 0 21 15 44 66 96 37 37 69 62 71 56 2 -6 -28 -43
-65 -83z m-3663 7 c42 -43 66 -77 67 -92 1 -21 -10 -14 -73 49 -41 41 -72 76
-69 79 2 3 35 -24 72 -60 66 -63 66 -63 -8 14 -41 42 -70 77 -64 77 5 0 39
-30 75 -67z m-1693 -130 c0 -23 -7 -18 -68 42 -47 47 -67 74 -67 92 0 23 6 18
67 -42 47 -47 68 -74 68 -92z m2540 -6 c14 -36 47 -47 140 -47 l76 0 56 -52
55 -53 -48 50 c-65 70 -59 82 8 15 46 -45 52 -56 39 -63 -12 -7 -28 2 -65 39
-27 27 -49 44 -49 38 0 -5 18 -28 40 -49 22 -21 40 -42 40 -45 0 -15 -37 -6
-57 13 -26 23 -31 13 -7 -14 14 -16 8 -17 -95 -18 -121 -2 -164 10 -215 57
-37 35 -66 97 -66 146 0 38 0 39 20 21 11 -10 20 -13 20 -7 0 7 8 9 18 5 10
-3 2 10 -19 33 -20 21 -36 50 -37 63 -1 20 8 15 67 -40 38 -35 73 -76 79 -92z
m-845 65 c38 -38 67 -73 66 -78 -6 -33 2 -40 39 -36 l37 4 -40 -43 -40 -44 38
35 37 34 -2 -29 c-1 -18 -14 -44 -32 -63 l-31 -33 -113 2 -113 2 43 46 c37 39
38 41 6 12 -54 -50 -60 -29 -7 27 l44 47 -42 -40 c-54 -49 -57 -33 -4 19 26
25 44 36 53 30 7 -4 5 2 -4 13 -29 33 -20 39 12 8 17 -16 30 -24 30 -19 0 6
-13 23 -30 39 -16 16 -27 31 -25 34 3 2 27 -15 53 -40 45 -42 45 -42 -5 11
-75 79 -66 87 12 10 36 -35 65 -60 65 -54 0 5 -29 38 -65 74 -35 35 -62 66
-59 69 2 3 35 -24 72 -60 66 -63 66 -63 -8 14 -41 42 -70 77 -64 77 5 0 40
-31 77 -68z m3324 0 c14 -34 14 -35 -19 -71 l-33 -36 37 34 c21 19 39 33 42
30 2 -2 11 -19 20 -36 13 -26 23 -33 46 -33 l30 0 0 -70 0 -70 -140 0 -140 0
0 70 c0 66 1 70 23 71 14 1 42 24 77 63 l54 61 -54 -52 c-50 -47 -56 -51 -67
-35 -9 14 -3 25 40 69 28 29 55 49 60 46 5 -3 16 -21 24 -41z m-2591 -20 c-6
-5 -36 23 -36 34 0 4 9 -1 20 -11 11 -10 18 -20 16 -23z m-1130 -33 c62 -63
45 -64 -21 -2 l-50 48 55 -58 c72 -75 51 -74 -24 2 -53 54 -56 59 -33 59 17 0
41 -17 73 -49z m32 37 c8 -10 14 -56 8 -56 -1 0 -17 15 -35 34 l-33 34 26 0
c14 0 29 -6 34 -12z m-25 -140 c-7 -13 -18 -7 -63 39 -67 67 -55 73 15 8 l50
-48 -52 55 c-71 74 -68 90 3 19 44 -44 54 -60 47 -73z m4648 114 c27 15 24 -2
-6 -30 l-25 -23 1 34 c0 19 3 28 6 22 3 -9 10 -10 24 -3z m-4679 -152 c-18
-18 -116 79 -99 98 10 10 22 3 62 -36 39 -39 47 -52 37 -62z m5386 85 c-9 -10
-13 -23 -11 -30 6 -16 -76 -96 -92 -89 -7 2 -19 -2 -25 -10 -7 -8 -17 -14 -24
-14 -6 0 27 38 74 85 46 46 86 82 89 80 2 -3 -3 -13 -11 -22z m-5955 -10 c-7
-2 -9 -11 -6 -19 7 -19 -1 -18 -21 5 -16 18 -16 18 11 18 15 0 23 -2 16 -4z
m872 -13 c-10 -11 -22 -20 -26 -20 -4 0 -7 9 -6 20 1 14 8 20 26 20 23 0 24
-1 6 -20z m748 13 c-9 -3 -10 -10 -3 -24 14 -25 8 -24 -19 5 l-22 24 28 -1
c15 0 22 -2 16 -4z m2027 -60 l-65 -68 70 68 c39 37 73 67 76 67 3 0 6 -19 6
-42 1 -32 -6 -50 -24 -70 -22 -23 -32 -26 -90 -26 l-65 1 68 68 c38 38 73 69
78 69 6 0 -19 -30 -54 -67z m437 45 c2 -23 0 -22 -22 1 -16 19 -16 20 2 18 11
0 20 -9 20 -19z m690 7 c8 -9 13 -18 11 -21 -3 -2 -13 5 -23 16 -21 23 -11 27
12 5z m198 -53 c36 -36 63 -67 61 -69 -2 -2 -28 21 -57 52 -30 31 -63 61 -74
67 -11 6 9 -19 43 -55 58 -59 62 -64 39 -64 -29 0 -125 91 -124 118 1 36 46
16 112 -49z m470 57 c11 -17 -1 -21 -15 -4 -8 9 -8 15 -2 15 6 0 14 -5 17 -11z
m-336 -121 c3 -18 -17 -2 -69 56 l-55 61 61 -55 c34 -30 62 -58 63 -62z m370
48 c49 -50 51 -53 28 -53 -16 0 -38 13 -58 33 -42 43 -26 44 21 2 26 -25 25
-22 -7 12 -37 40 -51 60 -40 60 1 0 27 -24 56 -54z m47 -11 c27 -25 44 -45 39
-45 -6 0 -31 20 -55 45 -57 58 -47 58 16 0z m-621 -4 c36 -38 37 -40 14 -39
-33 2 -56 24 -56 53 0 14 0 25 1 25 1 0 19 -18 41 -39z m-3777 -16 c-2 -19 -8
-25 -27 -25 l-24 0 23 25 c13 14 25 25 27 25 1 0 2 -11 1 -25z m2609 -3 c0
-10 -9 -19 -20 -19 -18 -2 -18 -1 -2 18 22 23 24 24 22 1z m1718 -20 c-6 -7
-35 18 -35 31 0 5 9 2 20 -8 11 -10 18 -20 15 -23z"/>
<path d="M3799 6603 c-13 -16 -12 -17 4 -4 16 13 21 21 13 21 -2 0 -10 -8 -17
-17z"/>
<path d="M3809 6573 l-24 -28 28 24 c25 23 32 31 24 31 -2 0 -14 -12 -28 -27z"/>
<path d="M3814 6548 l-29 -33 33 29 c17 17 32 31 32 33 0 8 -8 1 -36 -29z"/>
<path d="M4280 6577 c0 -2 15 -16 33 -33 l32 -29 -29 33 c-28 30 -36 37 -36
29z"/>
<path d="M3819 6513 l-34 -38 38 34 c20 19 37 36 37 38 0 8 -8 0 -41 -34z"/>
<path d="M3830 6495 c-24 -25 -42 -45 -39 -45 3 0 25 20 49 45 24 25 42 45 39
45 -3 0 -25 -20 -49 -45z"/>
<path d="M4290 6498 c41 -45 50 -53 50 -45 0 2 -21 23 -47 47 l-48 45 45 -47z"/>
<path d="M3835 6458 l-50 -53 53 50 c48 46 57 55 49 55 -1 0 -25 -24 -52 -52z"/>
<path d="M3840 6433 l-55 -58 58 55 c31 30 57 56 57 57 0 8 -10 -1 -60 -54z"/>
<path d="M3840 6393 l-55 -58 58 55 c31 30 57 56 57 57 0 8 -10 -1 -60 -54z"/>
<path d="M4640 6663 l-65 -68 68 65 c37 35 67 66 67 67 0 8 -10 -2 -70 -64z"/>
<path d="M4710 6663 l-65 -68 68 65 c37 35 67 66 67 67 0 8 -10 -2 -70 -64z"/>
<path d="M4540 6675 c-24 -25 -42 -45 -39 -45 3 0 25 20 49 45 24 25 42 45 39
45 -3 0 -25 -20 -49 -45z"/>
<path d="M4600 6663 l-55 -58 58 55 c53 50 62 60 54 60 -1 0 -27 -26 -57 -57z"/>
<path d="M4795 6648 l-40 -43 43 40 c23 21 42 40 42 42 0 8 -9 0 -45 -39z"/>
<path d="M4710 6385 c35 -36 67 -65 69 -65 3 0 -24 29 -59 65 -35 36 -67 65
-69 65 -3 0 24 -29 59 -65z"/>
<path d="M4603 6393 c51 -59 78 -85 83 -81 2 2 -24 31 -58 64 -42 39 -50 45
-25 17z"/>
<path d="M4590 6335 c13 -14 26 -25 28 -25 3 0 -5 11 -18 25 -13 14 -26 25
-28 25 -3 0 5 -11 18 -25z"/>
<path d="M4899 6193 l-24 -28 28 24 c25 23 32 31 24 31 -2 0 -14 -12 -28 -27z"/>
<path d="M4760 6154 c0 -5 20 -27 45 -47 25 -21 45 -36 45 -35 0 2 -20 24 -45
48 -25 24 -45 40 -45 34z"/>
<path d="M4785 6090 c60 -60 65 -65 65 -54 0 10 -103 114 -114 114 -6 0 16
-27 49 -60z"/>
<path d="M5100 6705 c13 -14 26 -25 28 -25 3 0 -5 11 -18 25 -13 14 -26 25
-28 25 -3 0 5 -11 18 -25z"/>
<path d="M5335 6680 c27 -27 51 -50 54 -50 3 0 -17 23 -44 50 -27 28 -51 50
-54 50 -3 0 17 -22 44 -50z"/>
<path d="M5360 6726 c0 -2 8 -10 18 -17 15 -13 16 -12 3 4 -13 16 -21 21 -21
13z"/>
<path d="M5314 6661 c53 -54 56 -58 33 -58 -14 0 -36 10 -48 23 -12 13 -27 24
-32 24 -6 0 0 -11 13 -25 22 -23 16 -37 -6 -15 -7 7 -9 -1 -8 -22 2 -28 -6
-43 -59 -98 l-62 -65 61 58 61 58 -1 -43 c-1 -24 -5 -49 -9 -55 -6 -10 12 -13
81 -13 80 0 91 2 110 23 30 32 29 87 -1 115 -13 12 -28 22 -33 22 -5 0 -39 29
-74 65 -35 36 -69 65 -74 65 -6 0 16 -26 48 -59z"/>
<path d="M5295 6650 c21 -22 41 -40 44 -40 3 0 -13 18 -34 40 -21 22 -41 40
-44 40 -3 0 13 -18 34 -40z"/>
<path d="M5090 6645 c19 -19 36 -35 39 -35 3 0 -10 16 -29 35 -19 19 -36 35
-39 35 -3 0 10 -16 29 -35z"/>
<path d="M5154 6578 l-19 -23 23 19 c21 18 27 26 19 26 -2 0 -12 -10 -23 -22z"/>
<path d="M5209 6463 l-34 -38 38 34 c20 19 37 36 37 38 0 8 -8 0 -41 -34z"/>
<path d="M5229 6443 c-13 -16 -12 -17 4 -4 9 7 17 15 17 17 0 8 -8 3 -21 -13z"/>
<path d="M5434 6268 l-19 -23 23 19 c21 18 27 26 19 26 -2 0 -12 -10 -23 -22z"/>
<path d="M5149 6263 c-13 -16 -12 -17 4 -4 16 13 21 21 13 21 -2 0 -10 -8 -17
-17z"/>
<path d="M5185 6228 l-50 -53 53 50 c48 46 57 55 49 55 -1 0 -25 -24 -52 -52z"/>
<path d="M5454 6258 l-19 -23 23 19 c21 18 27 26 19 26 -2 0 -12 -10 -23 -22z"/>
<path d="M5095 6140 c10 -11 20 -20 23 -20 3 0 -3 9 -13 20 -10 11 -20 20 -23
20 -3 0 3 -9 13 -20z"/>
<path d="M5285 6050 c10 -11 20 -20 23 -20 3 0 -3 9 -13 20 -10 11 -20 20 -23
20 -3 0 3 -9 13 -20z"/>
<path d="M5869 6553 c-13 -16 -12 -17 4 -4 9 7 17 15 17 17 0 8 -8 3 -21 -13z"/>
<path d="M5875 6488 l-40 -43 43 40 c23 21 42 40 42 42 0 8 -9 0 -45 -39z"/>
<path d="M6330 6285 c-24 -25 -42 -45 -39 -45 3 0 25 20 49 45 24 25 42 45 39
45 -3 0 -25 -20 -49 -45z"/>
<path d="M6339 6253 l-34 -38 38 34 c20 19 37 36 37 38 0 8 -8 0 -41 -34z"/>
<path d="M6344 6228 l-29 -33 33 29 c30 28 37 36 29 36 -2 0 -16 -15 -33 -32z"/>
<path d="M6354 6168 l-19 -23 23 19 c21 18 27 26 19 26 -2 0 -12 -10 -23 -22z"/>
<path d="M6190 6707 c0 -2 15 -16 33 -33 l32 -29 -29 33 c-28 30 -36 37 -36
29z"/>
<path d="M6190 6674 c0 -6 14 -23 30 -39 17 -16 30 -24 30 -19 0 6 -13 23 -30
39 -16 16 -30 24 -30 19z"/>
<path d="M6405 6630 c10 -11 20 -20 23 -20 3 0 -3 9 -13 20 -10 11 -20 20 -23
20 -3 0 3 -9 13 -20z"/>
<path d="M6289 6413 l-34 -38 38 34 c34 33 42 41 34 41 -2 0 -19 -17 -38 -37z"/>
<path d="M5895 6368 l-60 -63 63 60 c58 55 67 65 59 65 -1 0 -29 -28 -62 -62z"/>
<path d="M5890 6323 l-55 -58 58 55 c31 30 57 56 57 57 0 8 -10 -1 -60 -54z"/>
<path d="M5895 6228 l-60 -63 63 60 c58 55 67 65 59 65 -1 0 -29 -28 -62 -62z"/>
<path d="M5914 6208 l-29 -33 33 29 c30 28 37 36 29 36 -2 0 -16 -15 -33 -32z"/>
<path d="M5929 6193 l-24 -28 28 24 c15 14 27 26 27 28 0 8 -8 1 -31 -24z"/>
<path d="M3840 6323 l-55 -58 58 55 c31 30 57 56 57 57 0 8 -10 -1 -60 -54z"/>
<path d="M3859 6213 l-34 -38 38 34 c20 19 37 36 37 38 0 8 -8 0 -41 -34z"/>
<path d="M4275 6340 c33 -33 62 -60 64 -60 3 0 -21 27 -54 60 -33 33 -62 60
-64 60 -3 0 21 -27 54 -60z"/>
<path d="M4275 6270 c33 -33 62 -60 64 -60 3 0 -21 27 -54 60 -33 33 -62 60
-64 60 -3 0 21 -27 54 -60z"/>
<path d="M5520 6215 c-24 -25 -42 -45 -39 -45 3 0 25 20 49 45 24 25 42 45 39
45 -3 0 -25 -20 -49 -45z"/>
<path d="M5539 6203 l-34 -38 38 34 c20 19 37 36 37 38 0 8 -8 0 -41 -34z"/>
<path d="M4260 6218 c41 -45 50 -53 50 -45 0 2 -21 23 -47 47 l-48 45 45 -47z"/>
<path d="M4184 6118 l-19 -23 23 19 c21 18 27 26 19 26 -2 0 -12 -10 -23 -22z"/>
<path d="M4189 6053 c-13 -16 -12 -17 4 -4 16 13 21 21 13 21 -2 0 -10 -8 -17
-17z"/>
<path d="M4389 6053 c-13 -16 -12 -17 4 -4 16 13 21 21 13 21 -2 0 -10 -8 -17
-17z"/>
<path d="M3544 5468 l-19 -23 23 19 c21 18 27 26 19 26 -2 0 -12 -10 -23 -22z"/>
<path d="M3345 5430 c27 -27 51 -50 54 -50 3 0 -17 23 -44 50 -27 28 -51 50
-54 50 -3 0 17 -22 44 -50z"/>
<path d="M3564 5448 l-29 -33 33 29 c17 17 32 31 32 33 0 8 -8 1 -36 -29z"/>
<path d="M3575 5428 l-40 -43 43 40 c23 21 42 40 42 42 0 8 -9 0 -45 -39z"/>
<path d="M3664 5338 l-29 -33 33 29 c30 28 37 36 29 36 -2 0 -16 -15 -33 -32z"/>
<path d="M3689 5333 l-34 -38 38 34 c20 19 37 36 37 38 0 8 -8 0 -41 -34z"/>
<path d="M3839 5473 c-13 -16 -12 -17 4 -4 16 13 21 21 13 21 -2 0 -10 -8 -17
-17z"/>
<path d="M3875 5438 l-50 -53 53 50 c48 46 57 55 49 55 -1 0 -25 -24 -52 -52z"/>
<path d="M3970 5433 l-65 -68 68 65 c37 35 67 66 67 67 0 8 -10 -2 -70 -64z"/>
<path d="M3950 5445 c-24 -25 -42 -45 -39 -45 3 0 25 20 49 45 24 25 42 45 39
45 -3 0 -25 -20 -49 -45z"/>
<path d="M3995 5428 l-60 -63 63 60 c58 55 67 65 59 65 -1 0 -29 -28 -62 -62z"/>
<path d="M4045 5408 l-40 -43 43 40 c23 21 42 40 42 42 0 8 -9 0 -45 -39z"/>
<path d="M4194 4908 l-19 -23 23 19 c12 11 22 21 22 23 0 8 -8 2 -26 -19z"/>
<path d="M4230 4873 l-55 -58 58 55 c53 50 62 60 54 60 -1 0 -27 -26 -57 -57z"/>
<path d="M4360 4863 l-55 -58 58 55 c31 30 57 56 57 57 0 8 -10 -1 -60 -54z"/>
<path d="M4404 4838 l-29 -33 33 29 c17 17 32 31 32 33 0 8 -8 1 -36 -29z"/>
<path d="M4250 5433 l-55 -58 58 55 c31 30 57 56 57 57 0 8 -10 -1 -60 -54z"/>
<path d="M4270 5328 c41 -45 50 -53 50 -45 0 2 -21 23 -47 47 l-48 45 45 -47z"/>
<path d="M4530 5447 c0 -2 15 -16 33 -33 l32 -29 -29 33 c-28 30 -36 37 -36
29z"/>
<path d="M4640 5315 c-24 -25 -42 -45 -39 -45 3 0 25 20 49 45 24 25 42 45 39
45 -3 0 -25 -20 -49 -45z"/>
<path d="M4660 5233 l-55 -58 58 55 c31 30 57 56 57 57 0 8 -10 -1 -60 -54z"/>
<path d="M4830 5458 c41 -45 50 -53 50 -45 0 2 -21 23 -47 47 l-48 45 45 -47z"/>
<path d="M4939 5333 l-24 -28 28 24 c25 23 32 31 24 31 -2 0 -14 -12 -28 -27z"/>
<path d="M4964 5328 l-29 -33 33 29 c30 28 37 36 29 36 -2 0 -16 -15 -33 -32z"/>
<path d="M5260 5455 c19 -19 36 -35 39 -35 3 0 -10 16 -29 35 -19 19 -36 35
-39 35 -3 0 10 -16 29 -35z"/>
<path d="M5480 5425 c-24 -25 -42 -45 -39 -45 3 0 25 20 49 45 24 25 42 45 39
45 -3 0 -25 -20 -49 -45z"/>
<path d="M5510 5425 c-24 -25 -42 -45 -39 -45 3 0 25 20 49 45 24 25 42 45 39
45 -3 0 -25 -20 -49 -45z"/>
<path d="M5983 5435 c73 -78 74 -96 1 -25 -31 30 -51 45 -45 33 9 -18 9 -23 0
-23 -7 0 -3 -10 9 -23 26 -28 30 -47 5 -24 -17 15 -18 10 -18 -81 l0 -97 50
-3 c107 -7 155 20 155 86 0 40 -31 82 -60 82 -8 0 -46 30 -85 68 -67 64 -68
64 -12 7z m3 -47 c28 -30 17 -30 -18 0 -16 13 -24 32 -15 32 2 0 16 -14 33
-32z"/>
<path d="M5819 5343 c-13 -16 -12 -17 4 -4 9 7 17 15 17 17 0 8 -8 3 -21 -13z"/>
<path d="M5860 5273 l-55 -58 58 55 c53 50 62 60 54 60 -1 0 -27 -26 -57 -57z"/>
<path d="M5870 5253 l-55 -58 58 55 c31 30 57 56 57 57 0 8 -10 -1 -60 -54z"/>
<path d="M5889 5233 l-24 -28 28 24 c25 23 32 31 24 31 -2 0 -14 -12 -28 -27z"/>
<path d="M5899 5213 c-13 -16 -12 -17 4 -4 9 7 17 15 17 17 0 8 -8 3 -21 -13z"/>
<path d="M6145 5038 l-40 -43 43 40 c23 21 42 40 42 42 0 8 -9 0 -45 -39z"/>
<path d="M6104 5038 l-19 -23 23 19 c12 11 22 21 22 23 0 8 -8 2 -26 -19z"/>
<path d="M6190 4985 c-24 -25 -42 -45 -39 -45 3 0 25 20 49 45 24 25 42 45 39
45 -3 0 -25 -20 -49 -45z"/>
<path d="M5730 4907 c0 -2 15 -16 33 -33 l32 -29 -29 33 c-28 30 -36 37 -36
29z"/>
<path d="M5940 4907 c0 -2 15 -16 33 -33 l32 -29 -29 33 c-28 30 -36 37 -36
29z"/>
<path d="M5745 4820 c10 -11 20 -20 23 -20 3 0 -3 9 -13 20 -10 11 -20 20 -23
20 -3 0 3 -9 13 -20z"/>
<path d="M5955 4820 c10 -11 20 -20 23 -20 3 0 -3 9 -13 20 -10 11 -20 20 -23
20 -3 0 3 -9 13 -20z"/>
<path d="M6654 5478 l-19 -23 23 19 c21 18 27 26 19 26 -2 0 -12 -10 -23 -22z"/>
<path d="M6464 5398 l-19 -23 23 19 c21 18 27 26 19 26 -2 0 -12 -10 -23 -22z"/>
<path d="M6600 5362 c0 -12 19 -26 26 -19 2 2 -2 10 -11 17 -9 8 -15 8 -15 2z"/>
<path d="M6745 5428 l-50 -53 53 50 c48 46 57 55 49 55 -1 0 -25 -24 -52 -52z"/>
<path d="M3300 5408 c41 -45 50 -53 50 -45 0 2 -21 23 -47 47 l-48 45 45 -47z"/>
<path d="M5190 5388 c24 -27 45 -48 47 -48 8 0 0 9 -44 50 l-48 45 45 -47z"/>
<path d="M5540 5385 c-24 -25 -42 -45 -39 -45 3 0 25 20 49 45 24 25 42 45 39
45 -3 0 -25 -20 -49 -45z"/>
<path d="M5570 5345 c-24 -25 -42 -45 -39 -45 3 0 25 20 49 45 24 25 42 45 39
45 -3 0 -25 -20 -49 -45z"/>
<path d="M5594 5328 l-29 -33 33 29 c30 28 37 36 29 36 -2 0 -16 -15 -33 -32z"/>
<path d="M5620 5006 c0 -2 8 -10 18 -17 15 -13 16 -12 3 4 -13 16 -21 21 -21
13z"/>
<path d="M3250 5315 c29 -30 56 -52 59 -50 6 7 -90 105 -103 105 -6 0 14 -25
44 -55z"/>
<path d="M5160 5315 c30 -30 57 -55 59 -55 3 0 -19 25 -49 55 -30 30 -57 55
-59 55 -3 0 19 -25 49 -55z"/>
<path d="M4240 5288 c41 -45 50 -53 50 -45 0 2 -21 23 -47 47 l-48 45 45 -47z"/>
<path d="M4210 5248 c41 -45 50 -53 50 -45 0 2 -21 23 -47 47 l-48 45 45 -47z"/>
<path d="M3245 5150 c33 -33 62 -60 64 -60 3 0 -21 27 -54 60 -33 33 -62 60
-64 60 -3 0 21 -27 54 -60z"/>
<path d="M4660 5123 l-55 -58 58 55 c31 30 57 56 57 57 0 8 -10 -1 -60 -54z"/>
<path d="M4660 5053 l-55 -58 58 55 c31 30 57 56 57 57 0 8 -10 -1 -60 -54z"/>
<path d="M4660 4993 l-55 -58 58 55 c31 30 57 56 57 57 0 8 -10 -1 -60 -54z"/>
<path d="M4694 4958 l-19 -23 23 19 c21 18 27 26 19 26 -2 0 -12 -10 -23 -22z"/>
<path d="M3190 5067 c0 -2 15 -16 33 -33 l32 -29 -29 33 c-28 30 -36 37 -36
29z"/>
<path d="M3540 4867 c0 -2 15 -16 33 -33 l32 -29 -29 33 c-28 30 -36 37 -36
29z"/>
<path d="M5455 4820 c10 -11 20 -18 23 -15 7 6 -18 35 -31 35 -5 0 -2 -9 8
-20z"/>
<path d="M4040 5038 c41 -45 50 -53 50 -45 0 2 -21 23 -47 47 l-48 45 45 -47z"/>
<path d="M3970 4965 c19 -19 36 -35 39 -35 3 0 -10 16 -29 35 -19 19 -36 35
-39 35 -3 0 10 -16 29 -35z"/>
<path d="M3910 4956 c0 -2 8 -10 18 -17 15 -13 16 -12 3 4 -13 16 -21 21 -21
13z"/>
<path d="M3640 4908 c41 -45 50 -53 50 -45 0 2 -21 23 -47 47 l-48 45 45 -47z"/>
<path d="M1869 4243 c-13 -16 -12 -17 4 -4 9 7 17 15 17 17 0 8 -8 3 -21 -13z"/>
<path d="M1935 4198 l-50 -53 53 50 c48 46 57 55 49 55 -1 0 -25 -24 -52 -52z"/>
<path d="M2000 4195 c-24 -25 -42 -45 -39 -45 3 0 25 20 49 45 24 25 42 45 39
45 -3 0 -25 -20 -49 -45z"/>
<path d="M1800 4088 c24 -27 45 -48 47 -48 8 0 0 9 -44 50 l-48 45 45 -47z"/>
<path d="M2314 4218 l-29 -33 33 29 c17 17 32 31 32 33 0 8 -8 1 -36 -29z"/>
<path d="M2529 4163 c-13 -16 -12 -17 4 -4 9 7 17 15 17 17 0 8 -8 3 -21 -13z"/>
<path d="M2374 3968 l-19 -23 23 19 c21 18 27 26 19 26 -2 0 -12 -10 -23 -22z"/>
<path d="M2405 3928 l-50 -53 53 50 c48 46 57 55 49 55 -1 0 -25 -24 -52 -52z"/>
<path d="M2869 4233 l-24 -28 28 24 c25 23 32 31 24 31 -2 0 -14 -12 -28 -27z"/>
<path d="M2934 4228 l-29 -33 33 29 c17 17 32 31 32 33 0 8 -8 1 -36 -29z"/>
<path d="M2654 3748 l-19 -23 23 19 c21 18 27 26 19 26 -2 0 -12 -10 -23 -22z"/>
<path d="M2679 3733 l-34 -38 38 34 c34 33 42 41 34 41 -2 0 -19 -17 -38 -37z"/>
<path d="M2700 3725 c-24 -25 -42 -45 -39 -45 3 0 25 20 49 45 24 25 42 45 39
45 -3 0 -25 -20 -49 -45z"/>
<path d="M2720 3705 c-24 -25 -42 -45 -39 -45 3 0 25 20 49 45 24 25 42 45 39
45 -3 0 -25 -20 -49 -45z"/>
<path d="M3035 3640 c27 -27 51 -50 54 -50 3 0 -17 23 -44 50 -27 28 -51 50
-54 50 -3 0 17 -22 44 -50z"/>
<path d="M2790 3635 c-24 -25 -42 -45 -39 -45 3 0 25 20 49 45 24 25 42 45 39
45 -3 0 -25 -20 -49 -45z"/>
<path d="M2805 3618 l-40 -43 43 40 c39 36 47 45 39 45 -2 0 -21 -19 -42 -42z"/>
<path d="M3645 4178 l-40 -43 43 40 c39 36 47 45 39 45 -2 0 -21 -19 -42 -42z"/>
<path d="M3659 4163 c-13 -16 -12 -17 4 -4 16 13 21 21 13 21 -2 0 -10 -8 -17
-17z"/>
<path d="M3934 4218 l-29 -33 33 29 c17 17 32 31 32 33 0 8 -8 1 -36 -29z"/>
<path d="M4139 4223 l-24 -28 28 24 c25 23 32 31 24 31 -2 0 -14 -12 -28 -27z"/>
<path d="M3989 3963 c-13 -16 -12 -17 4 -4 16 13 21 21 13 21 -2 0 -10 -8 -17
-17z"/>
<path d="M4025 3928 l-50 -53 53 50 c48 46 57 55 49 55 -1 0 -25 -24 -52 -52z"/>
<path d="M4614 4238 l-19 -23 23 19 c12 11 22 21 22 23 0 8 -8 2 -26 -19z"/>
<path d="M4370 4242 c0 -5 24 -28 53 -52 l52 -43 -50 51 c-52 55 -55 57 -55
44z"/>
<path d="M4634 4218 l-29 -33 33 29 c17 17 32 31 32 33 0 8 -8 1 -36 -29z"/>
<path d="M4370 4178 c24 -27 45 -48 47 -48 8 0 0 9 -44 50 l-48 45 45 -47z"/>
<path d="M5520 4258 c0 -11 59 -72 64 -67 3 3 -10 21 -29 39 -19 19 -35 31
-35 28z"/>
<path d="M5350 4215 c19 -19 36 -35 39 -35 3 0 -10 16 -29 35 -19 19 -36 35
-39 35 -3 0 10 -16 29 -35z"/>
<path d="M5545 4190 c16 -16 31 -28 33 -25 7 7 -39 55 -52 55 -5 0 3 -13 19
-30z"/>
<path d="M4989 4103 l-24 -28 28 24 c25 23 32 31 24 31 -2 0 -14 -12 -28 -27z"/>
<path d="M5019 4073 c-13 -16 -12 -17 4 -4 16 13 21 21 13 21 -2 0 -10 -8 -17
-17z"/>
<path d="M5010 4025 c-24 -25 -42 -45 -39 -45 3 0 25 20 49 45 24 25 42 45 39
45 -3 0 -25 -20 -49 -45z"/>
<path d="M5015 3998 l-50 -53 53 50 c28 27 52 51 52 52 0 8 -9 -1 -55 -49z"/>
<path d="M5020 3963 l-55 -58 58 55 c31 30 57 56 57 57 0 8 -10 -1 -60 -54z"/>
<path d="M5409 3973 l-24 -28 28 24 c25 23 32 31 24 31 -2 0 -14 -12 -28 -27z"/>
<path d="M5450 3913 l-55 -58 58 55 c53 50 62 60 54 60 -1 0 -27 -26 -57 -57z"/>
<path d="M5025 3868 l-60 -63 63 60 c34 33 62 61 62 62 0 8 -10 -1 -65 -59z"/>
<path d="M5450 3873 l-55 -58 58 55 c53 50 62 60 54 60 -1 0 -27 -26 -57 -57z"/>
<path d="M5045 3748 l-40 -43 43 40 c39 36 47 45 39 45 -2 0 -21 -19 -42 -42z"/>
<path d="M5474 3758 l-29 -33 33 29 c17 17 32 31 32 33 0 8 -8 1 -36 -29z"/>
<path d="M5914 4025 c-25 -87 -28 -105 -16 -105 12 0 9 -7 -9 -27 l-24 -28 30
26 c18 16 42 27 58 27 28 0 28 -2 -35 -67 l-63 -66 75 70 c41 39 76 71 79 72
5 3 -53 203 -59 203 -3 0 -19 -47 -36 -105z"/>
<path d="M5900 3865 c-24 -25 -42 -45 -39 -45 3 0 25 20 49 45 24 25 42 45 39
45 -3 0 -25 -20 -49 -45z"/>
<path d="M5994 3818 l-29 -33 33 29 c17 17 32 31 32 33 0 8 -8 1 -36 -29z"/>
<path d="M6140 3633 l-65 -68 68 65 c37 35 67 66 67 67 0 8 -10 -2 -70 -64z"/>
<path d="M6464 4108 l-19 -23 23 19 c12 11 22 21 22 23 0 8 -8 2 -26 -19z"/>
<path d="M6500 4073 l-55 -58 58 55 c53 50 62 60 54 60 -1 0 -27 -26 -57 -57z"/>
<path d="M6510 4015 c-24 -25 -42 -45 -39 -45 3 0 25 20 49 45 24 25 42 45 39
45 -3 0 -25 -20 -49 -45z"/>
<path d="M6525 3998 l-40 -43 43 40 c23 21 42 40 42 42 0 8 -9 0 -45 -39z"/>
<path d="M6459 3793 c-13 -16 -12 -17 4 -4 9 7 17 15 17 17 0 8 -8 3 -21 -13z"/>
<path d="M6495 3758 l-50 -53 53 50 c48 46 57 55 49 55 -1 0 -25 -24 -52 -52z"/>
<path d="M6469 3773 l-24 -28 28 24 c15 14 27 26 27 28 0 8 -8 1 -31 -24z"/>
<path d="M6580 3677 c0 -2 15 -16 33 -33 l32 -29 -29 33 c-28 30 -36 37 -36
29z"/>
<path d="M6595 3590 c10 -11 20 -20 23 -20 3 0 -3 9 -13 20 -10 11 -20 20 -23
20 -3 0 3 -9 13 -20z"/>
<path d="M7314 4228 l-19 -23 23 19 c12 11 22 21 22 23 0 8 -8 2 -26 -19z"/>
<path d="M7094 4208 l-19 -23 23 19 c21 18 27 26 19 26 -2 0 -12 -10 -23 -22z"/>
<path d="M7159 3963 c-13 -16 -12 -17 4 -4 16 13 21 21 13 21 -2 0 -10 -8 -17
-17z"/>
<path d="M7195 3928 l-50 -53 53 50 c48 46 57 55 49 55 -1 0 -25 -24 -52 -52z"/>
<path d="M7459 4223 l-34 -38 38 34 c34 33 42 41 34 41 -2 0 -19 -17 -38 -37z"/>
<path d="M7744 4168 l-19 -23 23 19 c12 11 22 21 22 23 0 8 -8 2 -26 -19z"/>
<path d="M7535 3890 c21 -22 41 -40 44 -40 3 0 -13 18 -34 40 -21 22 -41 40
-44 40 -3 0 13 -18 34 -40z"/>
<path d="M7869 3733 l-24 -28 28 24 c15 14 27 26 27 28 0 8 -8 1 -31 -24z"/>
<path d="M7889 3723 c-13 -16 -12 -17 4 -4 9 7 17 15 17 17 0 8 -8 3 -21 -13z"/>
<path d="M7640 3635 c35 -36 67 -65 69 -65 3 0 -24 29 -59 65 -35 36 -67 65
-69 65 -3 0 24 -29 59 -65z"/>
<path d="M7715 3630 c33 -33 62 -60 64 -60 3 0 -21 27 -54 60 -33 33 -62 60
-64 60 -3 0 21 -27 54 -60z"/>
<path d="M7750 3665 c13 -14 26 -25 28 -25 3 0 -5 11 -18 25 -13 14 -26 25
-28 25 -3 0 5 -11 18 -25z"/>
<path d="M8425 4208 l-50 -53 53 50 c48 46 57 55 49 55 -1 0 -25 -24 -52 -52z"/>
<path d="M8339 3933 c-13 -16 -12 -17 4 -4 16 13 21 21 13 21 -2 0 -10 -8 -17
-17z"/>
<path d="M8345 3668 l-100 -103 103 100 c56 55 102 101 102 102 0 8 -12 -4
-105 -99z"/>
<path d="M8144 3708 l-19 -23 23 19 c12 11 22 21 22 23 0 8 -8 2 -26 -19z"/>
<path d="M8215 3638 l-50 -53 53 50 c48 46 57 55 49 55 -1 0 -25 -24 -52 -52z"/>
<path d="M8235 3628 l-50 -53 53 50 c48 46 57 55 49 55 -1 0 -25 -24 -52 -52z"/>
<path d="M3090 4145 c-24 -25 -42 -45 -39 -45 3 0 25 20 49 45 24 25 42 45 39
45 -3 0 -25 -20 -49 -45z"/>
<path d="M3049 4143 c-13 -16 -12 -17 4 -4 9 7 17 15 17 17 0 8 -8 3 -21 -13z"/>
<path d="M2075 4138 l-40 -43 43 40 c39 36 47 45 39 45 -2 0 -21 -19 -42 -42z"/>
<path d="M4725 4098 l-40 -43 43 40 c39 36 47 45 39 45 -2 0 -21 -19 -42 -42z"/>
<path d="M4759 4103 l-34 -38 38 34 c20 19 37 36 37 38 0 8 -8 0 -41 -34z"/>
<path d="M4770 3745 c13 -14 28 -25 33 -25 6 0 0 11 -13 25 -13 14 -28 25 -33
25 -6 0 0 -11 13 -25z"/>
<path d="M4720 3695 c24 -24 46 -42 49 -40 6 7 -70 85 -83 85 -6 0 10 -20 34
-45z"/>
<path d="M4320 4085 c30 -30 57 -55 59 -55 3 0 -19 25 -49 55 -30 30 -57 55
-59 55 -3 0 19 -25 49 -55z"/>
<path d="M2125 4078 l-50 -53 53 50 c48 46 57 55 49 55 -1 0 -25 -24 -52 -52z"/>
<path d="M2145 4028 l-40 -43 43 40 c39 36 47 45 39 45 -2 0 -21 -19 -42 -42z"/>
<path d="M2164 4018 l-29 -33 33 29 c30 28 37 36 29 36 -2 0 -16 -15 -33 -32z"/>
<path d="M1730 3772 c0 -9 46 -52 70 -66 8 -5 -3 10 -25 33 -41 43 -45 46 -45
33z"/>
<path d="M1785 4030 c33 -33 62 -60 64 -60 3 0 -21 27 -54 60 -33 33 -62 60
-64 60 -3 0 21 -27 54 -60z"/>
<path d="M4315 4020 c33 -33 62 -60 64 -60 3 0 -21 27 -54 60 -33 33 -62 60
-64 60 -3 0 21 -27 54 -60z"/>
<path d="M1785 3960 c33 -33 62 -60 64 -60 3 0 -21 27 -54 60 -33 33 -62 60
-64 60 -3 0 21 -27 54 -60z"/>
<path d="M4315 3950 c33 -33 62 -60 64 -60 3 0 -21 27 -54 60 -33 33 -62 60
-64 60 -3 0 21 -27 54 -60z"/>
<path d="M3490 3984 c0 -13 108 -119 114 -113 3 3 -21 32 -54 64 -33 33 -60
55 -60 49z"/>
<path d="M7710 3925 c30 -30 57 -55 59 -55 3 0 -19 25 -49 55 -30 30 -57 55
-59 55 -3 0 19 -25 49 -55z"/>
<path d="M7745 3960 c10 -11 20 -20 23 -20 3 0 -3 9 -13 20 -10 11 -20 20 -23
20 -3 0 3 -9 13 -20z"/>
<path d="M1785 3890 c33 -33 62 -60 64 -60 3 0 -21 27 -54 60 -33 33 -62 60
-64 60 -3 0 21 -27 54 -60z"/>
<path d="M2415 3798 l-60 -63 63 60 c34 33 62 61 62 62 0 8 -10 -1 -65 -59z"/>
<path d="M2415 3768 l-60 -63 63 60 c34 33 62 61 62 62 0 8 -10 -1 -65 -59z"/>
<path d="M2435 3748 l-40 -43 43 40 c23 21 42 40 42 42 0 8 -9 0 -45 -39z"/>
<path d="M2449 3733 l-24 -28 28 24 c25 23 32 31 24 31 -2 0 -14 -12 -28 -27z"/>
<path d="M2290 3667 c0 -2 15 -16 33 -33 l32 -29 -29 33 c-28 30 -36 37 -36
29z"/>
<path d="M2505 3590 c10 -11 20 -20 23 -20 3 0 -3 9 -13 20 -10 11 -20 20 -23
20 -3 0 3 -9 13 -20z"/>
<path d="M2290 3596 c0 -2 8 -10 18 -17 15 -13 16 -12 3 4 -13 16 -21 21 -21
13z"/>
<path d="M4035 3798 l-60 -63 63 60 c58 55 67 65 59 65 -1 0 -29 -28 -62 -62z"/>
<path d="M4035 3768 l-60 -63 63 60 c58 55 67 65 59 65 -1 0 -29 -28 -62 -62z"/>
<path d="M4064 3728 l-29 -33 33 29 c30 28 37 36 29 36 -2 0 -16 -15 -33 -32z"/>
<path d="M3910 3667 c0 -2 15 -16 33 -33 l32 -29 -29 33 c-28 30 -36 37 -36
29z"/>
<path d="M4125 3590 c10 -11 20 -20 23 -20 3 0 -3 9 -13 20 -10 11 -20 20 -23
20 -3 0 3 -9 13 -20z"/>
<path d="M3910 3596 c0 -2 8 -10 18 -17 15 -13 16 -12 3 4 -13 16 -21 21 -21
13z"/>
<path d="M4315 3880 c33 -33 62 -60 64 -60 3 0 -21 27 -54 60 -33 33 -62 60
-64 60 -3 0 21 -27 54 -60z"/>
<path d="M7205 3768 l-60 -63 63 60 c58 55 67 65 59 65 -1 0 -29 -28 -62 -62z"/>
<path d="M7280 3677 c0 -2 15 -16 33 -33 l32 -29 -29 33 c-28 30 -36 37 -36
29z"/>
<path d="M7080 3667 c0 -2 15 -16 33 -33 l32 -29 -29 33 c-28 30 -36 37 -36
29z"/>
<path d="M7295 3590 c10 -11 20 -20 23 -20 3 0 -3 9 -13 20 -10 11 -20 20 -23
20 -3 0 3 -9 13 -20z"/>
<path d="M7080 3596 c0 -2 8 -10 18 -17 15 -13 16 -12 3 4 -13 16 -21 21 -21
13z"/>
<path d="M1785 3820 c33 -33 62 -60 64 -60 3 0 -21 27 -54 60 -33 33 -62 60
-64 60 -3 0 21 -27 54 -60z"/>
<path d="M4304 3823 c28 -29 52 -50 55 -48 2 3 2 6 0 8 -2 1 -27 22 -54 47
l-50 45 49 -52z"/>
<path d="M4610 3637 c0 -2 15 -16 33 -33 l32 -29 -29 33 c-28 30 -36 37 -36
29z"/>
<path d="M3634 3668 l-19 -23 23 19 c12 11 22 21 22 23 0 8 -8 2 -26 -19z"/>
<path d="M3449 3593 l-24 -28 28 24 c25 23 32 31 24 31 -2 0 -14 -12 -28 -27z"/>
<path d="M6805 3788 l-40 -43 43 40 c23 21 42 40 42 42 0 8 -9 0 -45 -39z"/>
<path d="M6899 3713 c-13 -16 -12 -17 4 -4 16 13 21 21 13 21 -2 0 -10 -8 -17
-17z"/>
<path d="M3160 3796 c0 -2 8 -10 18 -17 15 -13 16 -12 3 4 -13 16 -21 21 -21
13z"/>
<path d="M3080 3668 c41 -45 50 -53 50 -45 0 2 -21 23 -47 47 l-48 45 45 -47z"/>
<path d="M8450 3635 c-24 -25 -42 -45 -39 -45 3 0 25 20 49 45 24 25 42 45 39
45 -3 0 -25 -20 -49 -45z"/>
<path d="M6235 3618 l-40 -43 43 40 c39 36 47 45 39 45 -2 0 -21 -19 -42 -42z"/>
<path d="M6249 3603 l-34 -38 38 34 c34 33 42 41 34 41 -2 0 -19 -17 -38 -37z"/>
<path d="M7480 3625 c30 -30 57 -55 59 -55 3 0 -19 25 -49 55 -30 30 -57 55
-59 55 -3 0 19 -25 49 -55z"/>
<path d="M7445 3590 c10 -11 20 -20 23 -20 3 0 -3 9 -13 20 -10 11 -20 20 -23
20 -3 0 3 -9 13 -20z"/>
</g>
</svg>
